<svg xmlns="http://www.w3.org/2000/svg" width="140.506" height="140.475" viewBox="0 0 140.506 140.475"><defs><style>.a{fill:#f90;}</style></defs><path class="a" d="M20.642,94.963c6.456.925,13-1.256,19.214-2.82a162.246,162.246,0,0,1,21.021-4.275c11.37-1.3,22.056.485,31.73,5.707a36.058,36.058,0,0,0-6.853-.9c-2.688,0-3.459,4.275-.661,4.8a69.171,69.171,0,0,1,17.561,5.6,2.986,2.986,0,0,0,3.592-4.671,67.039,67.039,0,0,1-11.061-18.8,3.069,3.069,0,1,0-5.641,2.358c.969,2.181,2.181,4.187,3.327,6.258A47.263,47.263,0,0,0,72.423,82.36c-14.234-.947-27.918,3.437-41.667,6.39-6.214,1.322-15.2,1.741-17.451-5.817-1.873-6.3.683-13.9,3.415-19.545,5.993-12.493,16.526-21.946,23.092-34.065,3.151-5.839,5.707-13.221,2.27-19.5-2.556-4.715-7.8-7.8-13.044-5.751C27.693,4.6,27.693,7,29.39,6.826c7.47-.771,9.849,7.646,8.087,13.419-1.983,6.5-6.853,12.207-10.863,17.561C19.1,47.832,10.726,57.879,7.884,70.417c-1.234,5.42-1.741,11.722.881,16.834C11.079,91.746,15.75,94.28,20.642,94.963Z" transform="translate(-7.527 63.207) rotate(-38)"/></svg>