<svg xmlns="http://www.w3.org/2000/svg" width="245.418" height="241.078" viewBox="0 0 245.418 241.078"><defs><style>.a{fill:#fff9eb;}.b,.c{fill:#fbc458;}.c,.e,.g,.j{stroke:#193e6c;}.c,.e,.g{stroke-width:2px;}.d{fill:#f2b845;}.e,.i{fill:#fff;}.f{fill:#e7ebf0;}.g,.k{fill:#0074ff;}.h{fill:#056eec;}.j{fill:#eff9fe;}.k{opacity:0.1;}.l,.m{stroke:none;}.m{fill:#193e6c;}</style></defs><g transform="translate(-1423 -6089.922)"><circle class="a" cx="110" cy="110" r="110" transform="translate(1423 6111)"/><g transform="translate(1620.146 6089.922) rotate(45)"><g transform="translate(12.976 10.381)"><path class="b" d="M64.955,13.4,65.672.126,63.338,0l-.6,11.18-12.226.659-.66,12.227-12.227.66-.661,12.228-12.226.659-.661,12.228L11.845,50.5l-.662,12.229L0,63.338l.127,2.333L13.4,64.952l.662-12.229,12.229-.662.661-12.228,12.226-.659.661-12.228,12.227-.66.66-12.227Z"/></g><g transform="translate(0 0)"><path class="b" d="M64.955,13.4,65.672.126,63.338,0l-.6,11.18-12.226.659-.66,12.227-12.227.66-.661,12.228-12.226.659-.661,12.228L11.845,50.5l-.662,12.229L0,63.338l.127,2.333L13.4,64.952l.662-12.229,12.229-.662.661-12.228,12.226-.659.661-12.228,12.227-.66.66-12.227Z"/></g></g><g transform="translate(1492 6179)"><path class="c" d="M125.344,216.037a1.9,1.9,0,0,0,.321-1.587l-2.123-7.924a2.284,2.284,0,0,0-2.908-1.344l-9.508,2.548a2.461,2.461,0,0,0-1.74,3.014l1.911,7.131a2.461,2.461,0,0,0,3.014,1.74l9.509-2.548A2.731,2.731,0,0,0,125.344,216.037Z" transform="translate(-109.301 -177.416)"/><g transform="translate(1.035 32.072)"><path class="d" d="M114.613,231.631c.329,1.313.726,1.845,1.907,1.927s9.079-2.693,9.079-2.693a2.554,2.554,0,0,0,1.427-1.031,2,2,0,0,0,.3-1.587l-.993-3.962-12.614,3.779Z" transform="translate(-112.994 -224.286)"/></g><path class="e" d="M141.744,189.425a5.749,5.749,0,0,1,4.06-7.033l6.339-1.7a2.461,2.461,0,0,1,3.014,1.74l4.246,15.847a2.461,2.461,0,0,1-1.74,3.014l-6.339,1.7a5.749,5.749,0,0,1-7.033-4.061Z" transform="translate(-132.47 -159.833)"/><g transform="translate(10.548 30.524)"><path class="f" d="M148.79,223.714c.661,3.9,3.9,5.022,7.033,4.061l5.593-1.6a2.461,2.461,0,0,0,1.74-3.014l-2.123-7.924-13.517,3.724Z" transform="translate(-146.77 -216.236)"/></g><path class="c" d="M171.818,146.65a4.922,4.922,0,0,1,3.48-6.028l38.826-10.4a2.461,2.461,0,0,1,3.014,1.74l5.945,22.186a2.461,2.461,0,0,1-1.74,3.014l-38.825,10.4a4.922,4.922,0,0,1-6.028-3.48Z" transform="translate(-154.097 -123.567)"/><path class="d" d="M226.542,186.562l-2.794-10.543-43.2,11.7,2.2,8.284a4.622,4.622,0,0,0,5.666,3.308l36.5-9.888a2.342,2.342,0,0,0,1.636-2.865Z" transform="translate(-159.599 -156.535)"/><path class="g" d="M313.116,113.3a2.461,2.461,0,0,1,1.74-3.014l12.678-3.4a2.461,2.461,0,0,1,3.014,1.74l7.643,28.525a2.461,2.461,0,0,1-1.74,3.014l-12.678,3.4a2.461,2.461,0,0,1-3.014-1.74Z" transform="translate(-255.678 -106.808)"/><path class="h" d="M346.278,178.629a2.213,2.213,0,0,0,.227-1.7l-3.524-12.977-16.075,4.25,3.524,12.977a2.273,2.273,0,0,0,2.779,1.583l11.691-3.091a2.267,2.267,0,0,0,1.378-1.043Z" transform="translate(-264.646 -146.866)"/><g transform="translate(19.149 33.141)"><g class="i" transform="translate(-177.322 -248.417)"><path class="l" d="M 219.1606140136719 300.2760620117188 C 217.8368225097656 300.2760620117188 216.611328125 299.505126953125 216.0385131835938 298.3119812011719 L 202.9320831298828 271.0070495605469 L 202.9320831298828 296.814453125 C 202.9320831298828 298.7227478027344 201.3796081542969 300.2752380371094 199.4713745117188 300.2752380371094 C 197.5629577636719 300.2752380371094 196.0103302001953 298.7227478027344 196.0103302001953 296.814453125 L 196.0103302001953 271.0070495605469 L 182.9039459228516 298.3119201660156 C 182.3311004638672 299.5049438476563 181.1057739257813 300.2757873535156 179.7821960449219 300.2757873535156 C 179.2615661621094 300.2757873535156 178.7582855224609 300.1609191894531 178.2863464355469 299.9343872070313 C 177.4529266357422 299.534423828125 176.8251190185547 298.8338012695313 176.5186004638672 297.9616394042969 C 176.2120971679688 297.0894470214844 176.2635955810547 296.150146484375 176.6636352539063 295.3167724609375 L 194.2209777832031 258.7393188476563 C 194.7935333251953 257.546630859375 196.0181427001953 256.7760009765625 197.3408355712891 256.7760009765625 L 201.6015930175781 256.7760009765625 C 202.9244537353516 256.7760009765625 204.1491851806641 257.546630859375 204.7217254638672 258.7392883300781 L 222.27880859375 295.3167724609375 C 223.1045074462891 297.0368957519531 222.3767700195313 299.1084594726563 220.6565856933594 299.9345703125 C 220.1836090087891 300.1612854003906 219.6805267333984 300.2760620117188 219.1606140136719 300.2760620117188 Z"/><path class="m" d="M 219.1606140136719 299.2760620117188 C 219.5175933837891 299.2760620117188 219.8801727294922 299.1977844238281 220.2236633300781 299.0331420898438 C 221.4487915039063 298.4447631835938 221.9653778076172 296.9746704101563 221.3772888183594 295.74951171875 L 203.8202209472656 259.1720581054688 C 203.4106140136719 258.3188171386719 202.5480499267578 257.7760009765625 201.6015930175781 257.7760009765625 L 197.3408355712891 257.7760009765625 C 196.3943939208984 257.7760009765625 195.5321044921875 258.3188171386719 195.1224975585938 259.1720581054688 L 177.5651550292969 295.74951171875 C 176.97705078125 296.9746704101563 177.4936370849609 298.4447631835938 178.7190704345703 299.0328674316406 C 179.0624542236328 299.1976928710938 179.4251708984375 299.2757873535156 179.7821960449219 299.2757873535156 C 180.6990203857422 299.2757873535156 181.5789489746094 298.7611694335938 182.0024261474609 297.8791809082031 L 197.0103302001953 266.6128234863281 L 197.0103302001953 296.814453125 C 197.0103302001953 298.1733703613281 198.1121978759766 299.2752380371094 199.4713745117188 299.2752380371094 C 200.8305206298828 299.2752380371094 201.9320831298828 298.1733703613281 201.9320831298828 296.814453125 L 201.9320831298828 266.6128234863281 L 216.9400024414063 297.8791809082031 C 217.3634185791016 298.7611389160156 218.2437438964844 299.2760620117188 219.1606140136719 299.2760620117188 M 219.1606140136719 301.2760620117188 C 217.4546051025391 301.2760620117188 215.8752593994141 300.282470703125 215.1370239257813 298.7447814941406 L 203.9320831298828 275.4012756347656 L 203.9320831298828 296.814453125 C 203.9320831298828 299.2741394042969 201.9310150146484 301.2752380371094 199.4713745117188 301.2752380371094 C 197.0115356445313 301.2752380371094 195.0103302001953 299.2741394042969 195.0103302001953 296.814453125 L 195.0103302001953 275.4012451171875 L 183.8054656982422 298.7446594238281 C 183.067138671875 300.2823486328125 181.4879608154297 301.2757873535156 179.7821960449219 301.2757873535156 C 179.1105651855469 301.2757873535156 178.4617156982422 301.1277770996094 177.8536376953125 300.8359375 C 176.7794494628906 300.3204040527344 175.9702301025391 299.4173583984375 175.5751647949219 298.2931823730469 C 175.1800842285156 297.1689758300781 175.2464752197266 295.9582214355469 175.7621154785156 294.8840026855469 L 193.3194580078125 258.3065795898438 C 194.0574493408203 256.769287109375 195.6359100341797 255.7760009765625 197.3408355712891 255.7760009765625 L 201.6015930175781 255.7760009765625 C 203.3066711425781 255.7760009765625 204.8852691650391 256.769287109375 205.6232147216797 258.3064880371094 L 223.1803436279297 294.8840637207031 C 224.2445831298828 297.1011657714844 223.306640625 299.7712097167969 221.0895080566406 300.8359985351563 C 220.4798431396484 301.1282348632813 219.8313293457031 301.2760620117188 219.1606140136719 301.2760620117188 Z"/></g><path class="f" d="M260.349,259.172a2.461,2.461,0,0,0-2.219-1.4H256v41.5a2.461,2.461,0,0,0,2.461-2.461v-30.2l15.008,31.266a2.461,2.461,0,1,0,4.437-2.13Z" transform="translate(-233.851 -248.417)"/><path class="j" d="M237.158,239.3a7.383,7.383,0,1,1,7.383-7.383A7.391,7.391,0,0,1,237.158,239.3Z" transform="translate(-215.009 -224.53)"/></g><g transform="translate(41.298 33.141)"><path class="k" d="M256,224.53V239.3a7.383,7.383,0,0,0,0-14.766Z" transform="translate(-256 -224.53)"/></g></g></g></svg>