<svg xmlns="http://www.w3.org/2000/svg" xmlns:xlink="http://www.w3.org/1999/xlink" width="1920" height="562.066" viewBox="0 0 1920 562.066"><defs><style>.a{fill:#fff9eb;}.b{clip-path:url(#a);}.c{stroke:rgba(0,0,0,0);stroke-miterlimit:10;fill:url(#b);}</style><clipPath id="a"><path class="a" d="M7960-.209c56.981-.511,1920,0,1920,0V561.63H7960Z" transform="translate(84 -3098.564)"/></clipPath><linearGradient id="b" x1="0.841" y1="0.051" x2="0.035" y2="0.76" gradientUnits="objectBoundingBox"><stop offset="0" stop-color="#ffcb66"/><stop offset="1" stop-color="#ffe8a9" stop-opacity="0"/></linearGradient></defs><g class="b" transform="translate(-8044 3099)"><path class="c" d="M2253.147-76.272c-337.105,21.089-667.567,43.8-868.8,100.136l-4.246,1.1C1173.552,79.825,1071.345,161.849,1019.76,256.9l-.925,2.062c-51.4,95.108-53.859,203-64.529,308.676l-.17,2.163c-11.152,105.645-30.719,209.1-124.933,293.1,3.207,2.721,6.359,5.343,9.633,8.071-3.274-2.728-6.428-5.351-9.637-8.072l-1.978,1.693c-93.253,84.342-271.951,146.523-560.592,180.083l-5.964.659c-90.659,10.746-190.757,19.133-295.9,26.117l-3.353,9.491C71,1073.678,175.55,1065.01,269.928,1053.794l5.94-.863c288.554-33.582,467.946-95.488,561.526-179.649l2.1-1.757C934.072,787.618,953.64,684.162,964.4,578.511l.292-2.226c10.123-105.81,11.83-213.809,62.087-309.3l1.2-2c50.5-95.336,151.136-177.666,355.691-233.044,1.421-.4,2.88-.885,4.4-1.257,199.215-56.764,527.23-80.11,863.309-101.369,2.331-.161,4.78-.387,6.929-.6.621-1.758,1.095-3.651,1.716-5.408C2257.864-76.488,2255.476-76.433,2253.147-76.272Zm-868.8,100.136c1.19,2.228,2.349,4.543,3.718,6.817C1386.685,28.406,1385.533,26.092,1384.343,23.864Z" transform="translate(8297.774 -3750.954) rotate(38)"/><path class="c" d="M2241.964-83.258C1906.5-61.074,1577.637-37.279,1377.228,19.933L1373,21.055C1167.316,76.8,1065.345,159.54,1013.7,255.232l-.928,2.075c-51.467,95.745-54.284,204.2-65.264,310.444l-.177,2.174c-11.459,106.218-31.283,210.26-125.307,294.968,3.181,2.725,6.309,5.352,9.556,8.084-3.248-2.732-6.377-5.359-9.56-8.085l-1.974,1.707c-93.07,85.046-271.074,148.069-558.365,182.646l-5.936.68c-90.236,11.066-189.854,19.789-294.485,27.117l-3.368,9.55c109.055-7.629,213.1-16.647,307.04-28.2l5.913-.885c287.2-34.6,465.9-97.347,559.293-182.212l2.093-1.773c94.389-84.613,114.214-188.656,125.28-294.879l.3-2.238c10.436-106.38,12.506-214.937,62.837-311.068l1.2-2.011c50.568-95.972,150.98-179.017,354.686-235.278,1.415-.4,2.869-.9,4.378-1.277,198.4-57.637,524.828-82.063,859.273-104.415,2.319-.169,4.757-.4,6.9-.624.624-1.769,1.1-3.672,1.726-5.441C2246.657-83.49,2244.282-83.427,2241.964-83.258ZM1377.228,19.933c1.176,2.235,2.321,4.56,3.676,6.841C1379.543,24.491,1378.4,22.169,1377.228,19.933Z" transform="matrix(0.743, 0.669, -0.669, 0.743, 8503.63, -3759.251)"/></g></svg>