<svg xmlns="http://www.w3.org/2000/svg" xmlns:xlink="http://www.w3.org/1999/xlink" width="580" height="570" viewBox="0 0 580 570"><defs><style>.a{fill:#fff;stroke:#f6f6f6;}.b{fill:#193e6c;font-size:32px;font-family:SofiaPro-Bold, Sofia Pro;font-weight:700;letter-spacing:0.01em;}.c{fill:#fffefe;}.c,.h{stroke:#f3f3f3;stroke-width:2px;}.d{fill:#7c828a;font-size:16px;font-family:SofiaProRegular, Sofia Pro;}.e{fill:#3366d6;}.f{fill:#71a3f7;}.g{fill:#147ad6;}.h,.k{fill:none;}.h{stroke-linecap:square;stroke-miterlimit:10;}.i{fill:#4285f4;}.j{stroke:none;}.l{filter:url(#a);}</style><filter id="a" x="0" y="0" width="580" height="570" filterUnits="userSpaceOnUse"><feOffset dy="5" input="SourceAlpha"/><feGaussianBlur stdDeviation="20" result="b"/><feFlood flood-color="#c5ccd6" flood-opacity="0.49"/><feComposite operator="in" in2="b"/><feComposite in="SourceGraphic"/></filter></defs><g transform="translate(-689 -4935)"><g class="l" transform="matrix(1, 0, 0, 1, 689, 4935)"><g class="a" transform="translate(60 55)"><rect class="j" width="460" height="450" rx="20"/><rect class="k" x="0.5" y="0.5" width="459" height="449" rx="19.5"/></g></g><text class="b" transform="translate(789 5062)"><tspan x="0" y="0">Top Selling Styles</tspan></text><g class="c" transform="translate(789 5119)"><rect class="j" width="380" height="380" rx="10"/><rect class="k" x="1" y="1" width="378" height="378" rx="9"/></g><g transform="translate(846 5461)"><g transform="translate(194.282)"><text class="d" transform="translate(15.506)"><tspan x="0" y="16">Leheng</tspan></text><circle class="e" cx="5" cy="5" r="5" transform="translate(0 6)"/></g><g transform="translate(97.141)"><text class="d" transform="translate(15.506)"><tspan x="0" y="16">Kurti</tspan></text><circle class="f" cx="5" cy="5" r="5" transform="translate(0 6)"/></g><g transform="translate(0)"><text class="d" transform="translate(15.506)"><tspan x="0" y="16">Dress</tspan></text><circle class="g" cx="5" cy="5" r="5" transform="translate(0 6)"/></g></g><path class="h" d="M.5,1l320-.5" transform="translate(819 5444)"/><g transform="translate(862 5174.187)"><g transform="translate(0 0)"><path class="f" d="M0,56.266l100.928,60.39V0A118.248,118.248,0,0,0,0,56.266Z" transform="translate(16.361 0)"/><path class="i" d="M15.915-.4C-11.18,44.175-4.264,101.647,31.392,139.789a117.5,117.5,0,0,0,139.014,24.4L117.129,60.362" transform="translate(0.624 56.356)"/><path class="e" d="M53.063,220.206A116.422,116.422,0,0,0,113.409,89.228,116.612,116.612,0,0,0,0,0V116.478L53.063,220.206" transform="translate(117.289)"/></g></g></g></svg>