<svg xmlns="http://www.w3.org/2000/svg" xmlns:xlink="http://www.w3.org/1999/xlink" width="580" height="570" viewBox="0 0 580 570"><defs><style>.a{fill:#fff;stroke:#f6f6f6;}.b,.d,.j{fill:#193e6c;}.b{font-size:32px;font-family:SofiaPro-Bold, Sofia Pro;font-weight:700;}.b,.d,.j,.k{letter-spacing:0.01em;}.c{fill:#fffefe;}.c,.l{stroke:#f3f3f3;stroke-width:2px;}.d,.j{font-size:16px;}.d,.k{font-family:SofiaProMedium, Sofia Pro;}.e{fill:rgba(115,136,169,0.35);}.f{fill:#79d2de;}.g{fill:#f83d7a;}.h{fill:#147ad6;}.i,.k{fill:#feb6b7;}.j{font-family:SofiaProRegular, Sofia Pro;}.k{font-size:24px;}.l,.n{fill:none;}.l{stroke-linecap:square;stroke-miterlimit:10;}.m{stroke:none;}.o{filter:url(#a);}</style><filter id="a" x="0" y="0" width="580" height="570" filterUnits="userSpaceOnUse"><feOffset dy="5" input="SourceAlpha"/><feGaussianBlur stdDeviation="20" result="b"/><feFlood flood-color="#c5ccd6" flood-opacity="0.49"/><feComposite operator="in" in2="b"/><feComposite in="SourceGraphic"/></filter></defs><g transform="translate(-1261 -4935)"><g class="o" transform="matrix(1, 0, 0, 1, 1261, 4935)"><g class="a" transform="translate(60 55)"><rect class="m" width="460" height="450" rx="20"/><rect class="n" x="0.5" y="0.5" width="459" height="449" rx="19.5"/></g></g><text class="b" transform="translate(1361 5062)"><tspan x="0" y="0">Trending Colours</tspan></text><g class="c" transform="translate(1361 5119)"><rect class="m" width="380" height="380" rx="10"/><rect class="n" x="1" y="1" width="378" height="378" rx="9"/></g><g transform="translate(1392 5405.5)"><text class="d" transform="translate(0 16)"><tspan x="0" y="0">Green</tspan></text><text class="d" transform="translate(0 16)"><tspan x="0" y="0">Green</tspan></text><text class="d" transform="translate(316.06 16)"><tspan x="-39.28" y="0">7,500</tspan></text><g transform="translate(0 27)"><rect class="e" width="317.866" height="8" rx="4"/><path class="f" d="M4,0H210.37a0,0,0,0,1,0,0V8a0,0,0,0,1,0,0H4A4,4,0,0,1,0,4V4A4,4,0,0,1,4,0Z"/></g></g><g transform="translate(1392 5342.5)"><text class="d" transform="translate(0 16)"><tspan x="0" y="0">Red</tspan></text><text class="d" transform="translate(315.543 16)"><tspan x="-47.808" y="0">10,000</tspan></text><g transform="translate(0 26)"><rect class="e" width="317.866" height="8" rx="4"/><path class="g" d="M4,0H241.578a0,0,0,0,1,0,0V8a0,0,0,0,1,0,0H4A4,4,0,0,1,0,4V4A4,4,0,0,1,4,0Z"/></g></g><g transform="translate(1392 5284.5)"><text class="d" transform="translate(0 16)"><tspan x="0" y="0">Blue</tspan></text><text class="d" transform="translate(264.371 16)"><tspan x="0" y="0">20,000</tspan></text><g transform="translate(0 28)"><rect class="e" width="317.866" height="8" rx="4"/><path class="h" d="M4,0H279.571a0,0,0,0,1,0,0V8a0,0,0,0,1,0,0H4A4,4,0,0,1,0,4V4A4,4,0,0,1,4,0Z"/></g></g><rect class="i" width="68" height="64" rx="5" transform="translate(1393 5151)"/><text class="j" transform="translate(1473 5155.5)"><tspan x="0" y="16">Trending Color</tspan></text><text class="k" transform="translate(1473 5205.5)"><tspan x="0" y="0">Pink</tspan></text><path class="l" d="M.5,1l320-.5" transform="translate(1391 5243)"/></g></svg>