<svg xmlns="http://www.w3.org/2000/svg" width="91.946" height="28.265" viewBox="0 0 91.946 28.265"><defs><style>.a{fill:none;stroke:#f9c466;stroke-miterlimit:10;stroke-width:3px;}</style></defs><g transform="translate(-450.508 -424.703)"><path class="a" d="M450.508,426.2c5.094,0,5.094,7.054,10.187,7.054s5.094-7.054,10.187-7.054,5.094,7.054,10.188,7.054,5.094-7.054,10.189-7.054,5.094,7.054,10.186,7.054,5.1-7.054,10.189-7.054,5.1,7.054,10.19,7.054,5.1-7.054,10.192-7.054,5.1,7.054,10.192,7.054"/><path class="a" d="M463.159,441.279c5.094,0,5.094,7.054,10.186,7.054s5.094-7.054,10.188-7.054,5.094,7.054,10.188,7.054,5.094-7.054,10.189-7.054,5.093,7.054,10.186,7.054,5.094-7.054,10.19-7.054,5.1,7.054,10.19,7.054,5.1-7.054,10.192-7.054,5.1,7.054,10.191,7.054" transform="translate(-12.405 3.134)"/></g></svg>