<svg xmlns="http://www.w3.org/2000/svg" width="254.454" height="220" viewBox="0 0 254.454 220"><defs><style>.a{fill:#fff9eb;}.b,.h{fill:none;stroke-miterlimit:10;stroke-width:3px;}.b{stroke:#fbc458;}.c,.g{fill:#fff;}.c,.d,.f,.h{stroke:#193e6c;}.c,.d,.f{stroke-width:2px;}.d{fill:#0074ff;}.e,.f{fill:#fbc458;}.h{stroke-linecap:round;}</style></defs><g transform="translate(-851 -5310)"><path class="a" d="M110,0A110,110,0,1,1,0,110,110,110,0,0,1,110,0Z" transform="translate(851 5310)"/><g transform="translate(563 4910.797)"><path class="b" d="M450.508,426.2c5.094,0,5.094,7.054,10.187,7.054s5.094-7.054,10.187-7.054,5.094,7.054,10.188,7.054,5.094-7.054,10.189-7.054,5.094,7.054,10.186,7.054,5.1-7.054,10.189-7.054,5.1,7.054,10.19,7.054,5.1-7.054,10.192-7.054,5.1,7.054,10.192,7.054"/><path class="b" d="M463.159,441.279c5.094,0,5.094,7.054,10.186,7.054s5.094-7.054,10.188-7.054,5.094,7.054,10.188,7.054,5.094-7.054,10.189-7.054,5.093,7.054,10.186,7.054,5.094-7.054,10.19-7.054,5.1,7.054,10.19,7.054,5.1-7.054,10.192-7.054,5.1,7.054,10.191,7.054" transform="translate(-12.405 3.134)"/></g><g transform="translate(906.999 5369.697)"><g transform="translate(0.001 0.303)"><path class="c" d="M64.94,33.59l-14.4-5.271L34.281,22.382,26.144,19.4,11.079,13.89a2,2,0,0,0-2.067.459L.575,22.786a1.963,1.963,0,0,0,.375,3.067L46.176,52.987Zm0,0" transform="translate(-0.001 -10.936)"/><path class="d" d="M209.322,43.664l3.759-3.759a3.924,3.924,0,0,0-5.55-5.549l-6.339,6.339Zm0,0" transform="translate(-158.79 -26.281)"/><path class="d" d="M132.176,11.748l4.769-4.758a3.925,3.925,0,0,0-5.55-5.55l-7.348,7.33Zm0,0" transform="translate(-97.903 -0.303)"/><path class="c" d="M326.434,198.734l5.272,14.4,2.968,8.13,2.969,8.131,2.979,8.136,5.522,15.066a2,2,0,0,1-.459,2.068l-8.436,8.436a1.962,1.962,0,0,1-3.067-.375L307.039,217.5Zm0,0" transform="translate(-242.329 -156.913)"/><path class="d" d="M427.05,256.857l6.339-6.339a3.924,3.924,0,0,0-5.548-5.55l-3.759,3.759Zm0,0" transform="translate(-334.704 -192.499)"/><path class="d" d="M455.266,330.262l7.339-7.338a3.925,3.925,0,0,0-5.55-5.55l-4.758,4.76Zm0,0" transform="translate(-356.973 -249.646)"/><path class="c" d="M45.043,298.256l-19.215-2.4a1.937,1.937,0,0,0-1.637.555L21.306,299.3a1.961,1.961,0,0,0,.547,3.162l16.439,7.674Zm0,0" transform="translate(-16.361 -233.551)"/><path class="c" d="M155.072,370.766l2.4,19.216a1.933,1.933,0,0,1-.555,1.636l-2.886,2.886a1.961,1.961,0,0,1-3.162-.556L143.2,377.509Zm0,0" transform="translate(-113.016 -292.689)"/></g><path class="e" d="M117.765,97.121a1.935,1.935,0,0,1-.949-.248L84.548,78.949a1.962,1.962,0,1,1,1.9-3.43l32.27,17.925a1.962,1.962,0,0,1-.956,3.677Zm0,0" transform="translate(-65.89 -59.147)"/><path class="e" d="M347.774,287.724a1.96,1.96,0,0,1-1.717-1.01l-17.924-32.268a1.962,1.962,0,0,1,3.43-1.905l17.924,32.27a1.962,1.962,0,0,1-1.713,2.914Zm0,0" transform="translate(-258.796 -198.308)"/><path class="f" d="M153.263,61.909c-22.219,22.219-51.517,42.819-56.885,37.461s15.239-34.662,37.458-56.881,37.648-28.95,43.012-23.588-1.365,20.789-23.584,43.008Zm0,0" transform="translate(-75.385 -13.299)"/><path class="g" d="M296.341,72.627a1.962,1.962,0,0,1-1.387-3.349c19.266-19.27,29.47-22.781,32.145-23.4a1.962,1.962,0,1,1,.885,3.823c-1.717.393-11.244,3.336-30.252,22.349a1.96,1.96,0,0,1-1.391.579Zm0,0" transform="translate(-232.336 -35.928)"/></g><g transform="translate(-9 2644)"><path class="h" d="M-3948,16l-16,16Zm-12-3-16,16Zm-4-13-16,16Z" transform="translate(4882.5 2803.5)"/></g></g></svg>