<svg xmlns="http://www.w3.org/2000/svg" width="140.506" height="140.476" viewBox="0 0 140.506 140.476"><defs><style>.a{fill:#f90;}</style></defs><path class="a" d="M13.767,8.464c6.456-.925,13,1.256,19.214,2.82A162.247,162.247,0,0,0,54,15.559c11.37,1.3,22.056-.485,31.73-5.707a36.058,36.058,0,0,1-6.853.9c-2.688,0-3.459-4.275-.661-4.8A69.172,69.172,0,0,0,95.779.355,2.986,2.986,0,0,1,99.37,5.026a67.039,67.039,0,0,0-11.061,18.8,3.069,3.069,0,1,1-5.641-2.358c.969-2.181,2.181-4.187,3.327-6.258a47.264,47.264,0,0,1-20.448,5.861c-14.234.947-27.918-3.437-41.667-6.39-6.214-1.322-15.2-1.741-17.451,5.817-1.873,6.3.683,13.9,3.415,19.545C15.838,52.532,26.37,61.985,32.937,74.1c3.151,5.839,5.707,13.221,2.27,19.5-2.556,4.715-7.8,7.8-13.044,5.751-1.344-.529-1.344-2.931.353-2.754,7.47.771,9.849-7.646,8.087-13.419-1.983-6.5-6.853-12.207-10.863-17.561C12.224,55.6,3.851,45.548,1.009,33.01c-1.234-5.42-1.741-11.722.881-16.834C4.2,11.681,8.875,9.147,13.767,8.464Z" transform="matrix(-0.788, -0.616, 0.616, -0.788, 78.94, 140.476)"/></svg>