<svg xmlns="http://www.w3.org/2000/svg" xmlns:xlink="http://www.w3.org/1999/xlink" width="169" height="169" viewBox="0 0 169 169"><defs><style>.a{fill:#fff9eb;}.b{clip-path:url(#a);}.c,.h{fill:#f90;}.c{opacity:0.2;}.d{fill:#fff;}.d,.i{stroke:#193e6c;stroke-width:2px;}.e{fill:#0074ff;}.f,.i{fill:#fbc458;}.g,.k{fill:#193e6c;}.j,.k{stroke:none;}.l{fill:none;}</style><clipPath id="a"><circle class="a" cx="84.5" cy="84.5" r="84.5" transform="translate(1131 2447)"/></clipPath></defs><g transform="translate(-1131 -2447)"><circle class="a" cx="84.5" cy="84.5" r="84.5" transform="translate(1131 2447)"/><g class="b"><circle class="c" cx="41.5" cy="41.5" r="41.5" transform="translate(1231 2440)"/><circle class="c" cx="41.5" cy="41.5" r="41.5" transform="translate(1106 2517)"/></g><g transform="translate(6 1.5)"><path class="d" d="M97.07,0H2.93A3.006,3.006,0,0,0,0,3.077V76.923A3.006,3.006,0,0,0,2.93,80H97.07A3.006,3.006,0,0,0,100,76.923V3.077A3.006,3.006,0,0,0,97.07,0Z" transform="translate(1156 2486.5)"/><rect class="e" width="24" height="4" rx="2" transform="translate(1168 2495)"/><rect class="f" width="34" height="32" rx="2" transform="translate(1216 2492.5)"/><rect class="g" width="50" height="4" rx="2" transform="translate(1168 2548.5)"/><rect class="g" width="43" height="4" rx="2" transform="translate(1168 2539.5)"/><rect class="g" width="36" height="4" rx="2" transform="translate(1168 2530.5)"/><g transform="translate(0 1)"><g class="h" transform="translate(1044.722 2170.064)"><path class="j" d="M 199.2340850830078 404.4358825683594 C 197.3123931884766 404.4358825683594 195.7489929199219 402.8753356933594 195.7489929199219 400.9571533203125 L 195.7489929199219 382.7256164550781 C 195.7489929199219 382.4880065917969 195.7737731933594 382.2485961914063 195.8226470947266 382.0139770507813 L 196.3311309814453 379.5735168457031 L 197.6501770019531 381.6888122558594 C 199.5977783203125 384.8121337890625 202.9473266601563 386.6767883300781 206.6102447509766 386.6767883300781 C 210.3230895996094 386.6767883300781 213.8073883056641 384.68115234375 215.7033843994141 381.4687194824219 L 216.95654296875 379.345458984375 L 217.5365142822266 381.7417602539063 C 217.6028900146484 382.0159912109375 217.6365356445313 382.2914733886719 217.6365356445313 382.5605773925781 L 217.6365356445313 400.9571533203125 C 217.6365356445313 402.8748168945313 216.0729217529297 404.4349670410156 214.1510009765625 404.4349670410156 C 213.4743804931641 404.4349670410156 212.8136901855469 404.2340393066406 212.2403717041016 403.8539428710938 L 206.6927642822266 400.1759948730469 L 201.1451568603516 403.8539428710938 C 200.5707550048828 404.2346801757813 199.9099273681641 404.4358825683594 199.2340850830078 404.4358825683594 Z"/><path class="k" d="M 216.5645751953125 381.9769897460938 C 214.5534057617188 385.3845825195313 210.8454742431641 387.6767883300781 206.6102447509766 387.6767883300781 C 202.4756774902344 387.6767883300781 198.8433380126953 385.4921569824219 196.8016357421875 382.2179565429688 C 196.7674865722656 382.3818664550781 196.7489929199219 382.551513671875 196.7489929199219 382.7256164550781 L 196.7489929199219 400.9571533203125 C 196.7489929199219 402.4101867675781 197.94580078125 403.4358825683594 199.2340850830078 403.4358825683594 C 199.6919250488281 403.4358825683594 200.1612396240234 403.306396484375 200.5925903320313 403.0204772949219 L 206.6927642822266 398.9761962890625 L 212.7929382324219 403.0204772949219 C 213.2227478027344 403.305419921875 213.6924591064453 403.4349365234375 214.1510009765625 403.4349365234375 C 215.436767578125 403.4349365234375 216.6365356445313 402.4176025390625 216.6365356445313 400.9571533203125 L 216.6365356445313 382.5605773925781 C 216.6365356445313 382.3592224121094 216.6099548339844 382.1644897460938 216.5645751953125 381.9769897460938 M 217.3485107421875 376.7138977050781 L 218.5084533691406 381.5065002441406 C 218.5934448242188 381.857666015625 218.6365356445313 382.2123107910156 218.6365356445313 382.5605773925781 L 218.6365356445313 400.9571533203125 C 218.6365356445313 403.4262390136719 216.6243286132813 405.4349670410156 214.1510009765625 405.4349670410156 C 213.2772216796875 405.4349670410156 212.4254608154297 405.1764526367188 211.6877899169922 404.6874084472656 L 206.6927642822266 401.3758239746094 L 201.6977386474609 404.6874084472656 C 200.9589385986328 405.1771240234375 200.1070709228516 405.4358825683594 199.2340698242188 405.4358825683594 C 196.7610015869141 405.4358825683594 194.7489929199219 403.4267578125 194.7489929199219 400.9571533203125 L 194.7489929199219 382.7256164550781 C 194.7489929199219 382.4196166992188 194.7808532714844 382.111572265625 194.8436737060547 381.8100280761719 L 195.8606109619141 376.9290466308594 L 198.4987182617188 381.1596984863281 C 200.2624664306641 383.9881591796875 203.2948150634766 385.6767883300781 206.6102447509766 385.6767883300781 C 209.9709014892578 385.6767883300781 213.1251983642578 383.8695983886719 214.8421783447266 380.96044921875 L 217.3485107421875 376.7138977050781 Z"/></g><g class="i" transform="translate(1238.955 2533.813)"><circle class="j" cx="12.378" cy="12.378" r="12.378"/><circle class="l" cx="12.378" cy="12.378" r="13.378"/></g></g></g></g></svg>