<svg xmlns="http://www.w3.org/2000/svg" width="240.492" height="220" viewBox="0 0 240.492 220"><defs><style>.a{fill:#fff9eb;}.b{fill:none;stroke:#fbc458;stroke-miterlimit:10;stroke-width:3px;}.c{fill:#00b19c;}.c,.d{stroke:#193e6c;stroke-width:2px;}.d{fill:#fbc458;}.e{fill:#fff;}.f{fill:#0074ff;}</style></defs><g transform="translate(-23.508 -10)"><circle class="a" cx="110" cy="110" r="110" transform="translate(44 10)"/><g transform="translate(23.508 39.203)"><path class="b" d="M450.508,426.2c5.094,0,5.094,7.054,10.187,7.054s5.094-7.054,10.187-7.054,5.094,7.054,10.188,7.054,5.094-7.054,10.189-7.054,5.094,7.054,10.186,7.054,5.1-7.054,10.189-7.054,5.1,7.054,10.19,7.054,5.1-7.054,10.192-7.054,5.1,7.054,10.192,7.054" transform="translate(-450.508 -426.203)"/><path class="b" d="M463.159,441.279c5.094,0,5.094,7.054,10.186,7.054s5.094-7.054,10.188-7.054,5.094,7.054,10.188,7.054,5.094-7.054,10.189-7.054,5.093,7.054,10.186,7.054,5.094-7.054,10.19-7.054,5.1,7.054,10.19,7.054,5.1-7.054,10.192-7.054,5.1,7.054,10.191,7.054" transform="translate(-462.913 -423.069)"/></g><g transform="translate(20.23 59)"><g transform="translate(99.855 78.449)"><path class="c" d="M134.486,320.518v7.994a30.022,30.022,0,0,1-31.538-26.187,31.05,31.05,0,0,1,3.859-.243A30.08,30.08,0,0,1,134.486,320.518Z" transform="translate(-102.948 -306.081)"/><path class="c" d="M275.365,326.175a30.039,30.039,0,0,1-31.554,26.2v-7.945a30.082,30.082,0,0,1,27.728-18.5A30.533,30.533,0,0,1,275.365,326.175Z" transform="translate(-207.23 -323.738)"/></g><path class="c" d="M217.388,318.39v5.669h-18.1V318.39h6.519V270.361q1.265.1,2.529.1c.843,0,1.67-.032,2.513-.1V318.39h6.535Z" transform="translate(-74.417 -200.15)"/><path class="d" d="M169.083,35.148a35.147,35.147,0,0,1-32.641,35.064q-1.262.1-2.524.1t-2.524-.1a35.152,35.152,0,1,1,37.688-35.064Z" transform="translate(0.5 0.5)"/><path class="e" d="M160.807,87.758a25.728,25.728,0,1,1,25.728-25.729A25.758,25.758,0,0,1,160.807,87.758Z" transform="translate(-27.309 -26.301)"/><path class="f" d="M90.387,6.309a.615.615,0,0,0-.455-.178H86.551a6.845,6.845,0,0,0-1.266-2.848h4.608a.608.608,0,0,0,.632-.633V.633A.608.608,0,0,0,89.893,0H73.439a.609.609,0,0,0-.633.633v2.63a.642.642,0,0,0,.633.633h2.868q4.173,0,5.3,2.235H73.439a.609.609,0,0,0-.633.633V8.781a.609.609,0,0,0,.633.632h8.445a3.864,3.864,0,0,1-2.027,2.472,8.925,8.925,0,0,1-4.2.851H73.439a.642.642,0,0,0-.633.633V15.88a.591.591,0,0,0,.178.435q3.8,4.034,9.849,11.292a.583.583,0,0,0,.495.237h3.856a.574.574,0,0,0,.574-.356.54.54,0,0,0-.079-.672q-5.774-7.08-9.077-10.6a10.03,10.03,0,0,0,5.458-2.175A7.394,7.394,0,0,0,86.61,9.413h3.322a.609.609,0,0,0,.633-.632V6.764A.616.616,0,0,0,90.387,6.309Z" transform="translate(51.963 22)"/></g></g></svg>