<svg xmlns="http://www.w3.org/2000/svg" xmlns:xlink="http://www.w3.org/1999/xlink" width="267" height="309" viewBox="0 0 267 309"><defs><style>.a{fill:#fff;}.b{mix-blend-mode:soft-light;clip-path:url(#a);}.b,.c{isolation:isolate;}.c{stroke:rgba(0,0,0,0);stroke-miterlimit:10;mix-blend-mode:color-dodge;}</style><clipPath id="a"><rect class="a" width="267" height="309" transform="translate(1580.375 1523)"/></clipPath></defs><g class="b" transform="translate(-1580.375 -1523)"><path class="c" d="M163.027,330.1c-44.765,0-85.894-16.374-115.809-46.108C16.576,253.533-.193,211.309,0,165.1.324,72.52,72.968,0,165.383,0h.188c43.979.047,84.812,16.642,114.982,46.728,31.314,31.226,48.4,73.979,48.106,120.383-.218,47.45-16.148,88.136-46.063,117.658S211.526,329.956,163.561,330.1Zm4.739-276.315c-.783,0-1.563.012-2.346.037a89.215,89.215,0,0,0-38.466,9.745C93.99,80.574,74.39,118.636,73.183,167.994c.094.66.175,1.419.255,2.265.121,1.279.229,2.757.35,4.4l.034.483c.642,8.84,1.613,22.2,5.778,34.509,16,46.925,43.794,69.736,84.983,69.737.672,0,1.345-.006,2.027-.018,44.759-.8,76.916-29.491,86.018-76.76,2.608-13.4,3.449-28.715,2.5-45.529-.124-2.266-.289-4.66-.487-7.116C250.191,95.133,212.844,53.786,167.766,53.786Z" transform="translate(1592.032 1537.788)"/></g></svg>