<svg xmlns="http://www.w3.org/2000/svg" width="684.671" height="134.073" viewBox="0 0 684.671 134.073"><defs><style>.a,.b,.g{fill:none;}.a{stroke:#e5f1ff;stroke-width:17px;}.a,.b{stroke-linecap:round;}.b,.c{stroke:#0074ff;}.b{stroke-dasharray:5;}.c{fill:#e5f1ff;}.d,.e{fill:#0074ff;font-size:18px;font-family:SofiaProMedium, Sofia Pro;}.d{letter-spacing:0.01em;}.e{letter-spacing:0.005em;}.f{stroke:none;}</style></defs><g transform="translate(-696.357 -915.927)"><g transform="translate(68 36)"><path class="a" d="M3072.874,3221.852s19.817.172,28.089,17.06,40.436,17.5,40.436,17.5" transform="translate(-2435.943 -2333.352)"/><path class="b" d="M3072.874,3221.852s19.817.172,28.089,17.06,40.436,17.5,40.436,17.5" transform="translate(-2435.943 -2333.352)"/></g><g transform="translate(1303.93 924.5)"><path class="a" d="M3141.4,3221.852s-19.817.172-28.089,17.06-40.436,17.5-40.436,17.5" transform="translate(-3072.874 -3221.852)"/><path class="b" d="M3141.4,3221.852s-19.817.172-28.089,17.06-40.436,17.5-40.436,17.5" transform="translate(-3072.874 -3221.852)"/></g><g transform="translate(68 35)"><g class="c" transform="translate(704.93 889)"><rect class="f" width="240" height="70" rx="35"/><rect class="g" x="0.5" y="0.5" width="239" height="69" rx="34.5"/></g><text class="d" transform="translate(745.93 931)"><tspan x="0" y="0">Product Catalogue</tspan></text></g><g transform="translate(190 -77)"><g class="c" transform="translate(873.93 1001)"><rect class="f" width="240" height="70" rx="35"/><rect class="g" x="0.5" y="0.5" width="239" height="69" rx="34.5"/></g><text class="d" transform="translate(941.93 1043)"><tspan x="0" y="0">Sales Report</tspan></text></g><g transform="translate(-120 115)"><g class="c" transform="translate(1038.93 865)"><rect class="f" width="240" height="70" rx="35"/><rect class="g" x="0.5" y="0.5" width="239" height="69" rx="34.5"/></g><text class="e" transform="translate(1061.93 907)"><tspan x="0" y="0">Inventory Management</tspan></text></g></g></svg>