<svg xmlns="http://www.w3.org/2000/svg" xmlns:xlink="http://www.w3.org/1999/xlink" width="170" height="171.006" viewBox="0 0 170 171.006"><defs><style>.a{fill:#fff9eb;}.b{clip-path:url(#a);}.c{fill:#fbc458;opacity:0.5;}.d{fill:#fff;stroke:#193e6c;stroke-width:2px;}.e{fill:#193e6c;}.f{fill:#0074ff;}</style><clipPath id="a"><path class="a" d="M85.413,1.175C138.6,1.667,170,38.281,170,85.5s-38.056,85.5-85,85.5S0,132.725,0,85.5,32.229.683,85.413,1.175Z" transform="translate(582 3187)"/></clipPath></defs><g transform="translate(-582 -3187)"><path class="a" d="M85,0c46.944,0,85,38.281,85,85.5s-38.056,85.5-85,85.5S0,132.725,0,85.5,38.056,0,85,0Z" transform="translate(582 3187)"/><g class="b"><circle class="c" cx="40.5" cy="40.5" r="40.5" transform="translate(552 3277)"/><circle class="c" cx="27" cy="27" r="27" transform="translate(716 3201)"/><g transform="translate(559 156)"><path class="d" d="M188.189,171.188V39.657C185.645,28.583,173.58,27.9,173.425,27.9H162.676a2.385,2.385,0,0,1-2.385-2.385V14C160.249,11.871,159.5,2.284,149.72.014L149.593,0H79.6a4.434,4.434,0,0,0-4.434,4.434V171.188C75.577,171.632,188.189,171.188,188.189,171.188Z" transform="translate(-18.117 3062)"/><g transform="translate(75.544 3092.065)"><path class="e" d="M169.234,100.895h-32.55a2.344,2.344,0,1,1,0-4.688h32.55a2.344,2.344,0,1,1,0,4.688Z" transform="translate(-134.34 -58.207)"/></g><g transform="translate(75.544 3074.898)"><path class="f" d="M142.462,45.96h-5.778a2.344,2.344,0,0,1,0-4.687h5.778a2.344,2.344,0,0,1,0,4.688Z" transform="translate(-134.34 -41.273)"/></g><g transform="translate(75.544 3104.735)"><path class="e" d="M207.37,141.439H136.683a2.344,2.344,0,0,1,0-4.687H207.37a2.344,2.344,0,0,1,0,4.688Z" transform="translate(-134.339 -98.751)"/></g><g transform="translate(75.544 3117.405)"><path class="e" d="M207.37,181.982H136.683a2.344,2.344,0,1,1,0-4.687H207.37a2.344,2.344,0,0,1,0,4.688Z" transform="translate(-134.339 -139.295)"/></g><g transform="translate(75.544 3130.075)"><path class="e" d="M207.37,222.526H136.683a2.344,2.344,0,1,1,0-4.687H207.37a2.344,2.344,0,1,1,0,4.687Z" transform="translate(-134.339 -179.839)"/></g><path class="e" d="M-6498.516-92.911l-19-2.723a2.854,2.854,0,0,1-2.854-2.852v-11.508c-.044-2.276-.941-14.006-14.626-14.006l3.12-.871c6.549,0,14.224,3.475,18.855,8.105l10.488,10.536a28.357,28.357,0,0,1,3.378,3.445,24.7,24.7,0,0,1,7.151,17.38v5.427C-6492.007-86.884-6495.138-90.75-6498.516-92.911Z" transform="translate(6662.079 3186)"/><path class="e" d="M10.2-11.32v-2.46H1.68V0H4.46V-5.56H9.02V-8H4.46v-3.32ZM12.62,0h5.4c3.96,0,6.26-2.96,6.26-6.86,0-3.92-2.3-6.92-6.26-6.92h-5.4ZM15.4-2.46v-8.86h2.62c2.3,0,3.48,2.1,3.48,4.46s-1.18,4.4-3.48,4.4ZM33.12.18a6.9,6.9,0,0,0,5.62-2.86L36.62-4.24a4.026,4.026,0,0,1-3.42,1.8A4.305,4.305,0,0,1,28.9-6.9a4.288,4.288,0,0,1,4.32-4.42,4.047,4.047,0,0,1,3.4,1.78l2.12-1.54a6.848,6.848,0,0,0-5.62-2.86,7,7,0,0,0-7,7.04A7.012,7.012,0,0,0,33.12.18ZM41.06,0h2.78V-13.78H41.06Z" transform="translate(76 3116)"/></g></g></g></svg>