<svg xmlns="http://www.w3.org/2000/svg" xmlns:xlink="http://www.w3.org/1999/xlink" width="170" height="171.006" viewBox="0 0 170 171.006"><defs><style>.a{fill:#fff9eb;}.b{clip-path:url(#a);}.c{fill:#f90;opacity:0.15;}.d{fill:#4fbf9f;}.e{fill:#fff;}.f{fill:#fbc458;}.g{fill:#193e6c;}.h{fill:#00b19c;}.i{fill:#0074ff;}</style><clipPath id="a"><ellipse class="a" cx="84.5" cy="85.5" rx="84.5" ry="85.5" transform="translate(1131 2447)"/></clipPath></defs><g transform="translate(-1130 -3041)"><ellipse class="a" cx="85" cy="85.503" rx="85" ry="85.503" transform="translate(1130 3041)"/><g class="b" transform="translate(0 594)"><circle class="c" cx="61" cy="61" r="61" transform="translate(1033 2477)"/><circle class="c" cx="61" cy="61" r="61" transform="translate(1232 2376)"/><circle class="c" cx="61" cy="61" r="61" transform="translate(1232 2568)"/></g><g transform="translate(1171.832 3082)"><path class="d" d="M30.9,60.06V37.743A6.762,6.762,0,0,0,37.727,30.9h60.09a6.762,6.762,0,0,0,6.826,6.842V60.06A6.762,6.762,0,0,0,97.817,66.9H37.727A6.762,6.762,0,0,0,30.9,60.06Z" transform="translate(-24.265 -24.411)"/><g transform="translate(13.948 13.475)"><circle class="e" cx="10.951" cy="10.951" r="10.951" transform="translate(18.609)"/><circle class="e" cx="3.421" cy="3.421" r="3.421" transform="translate(52.277 7.529)"/><circle class="e" cx="3.421" cy="3.421" r="3.421" transform="translate(0 7.529)"/><path class="f" d="M202.15,259.373A15.043,15.043,0,0,0,222,251.843h0a15.043,15.043,0,0,0-19.854,7.53Z" transform="translate(-171.631 -209.007)"/><path class="f" d="M106.925,308.824a15.141,15.141,0,0,0,19.439,8.761h0a15.092,15.092,0,0,0-19.439-8.761Z" transform="translate(-97.492 -253.706)"/></g><path class="g" d="M42.136,45.306v27.94a16.535,16.535,0,0,0-13.385-6.985,17.514,17.514,0,0,0-5.871,1.086l-1.229.543.543,1.229a16.569,16.569,0,0,0,15.3,10.513,16.236,16.236,0,0,0,4.642-.7v5.342H1.168v2.743H85.86V84.288H44.878V65.419a15.914,15.914,0,0,0,5.742,1.114,16.683,16.683,0,0,0,15.027-9.7l.543-1.229-1.229-.543A16.283,16.283,0,0,0,44.878,60.39V45.32ZM37.493,76.9A13.745,13.745,0,0,1,25.337,69.39a14.987,14.987,0,0,1,3.557-.414A13.745,13.745,0,0,1,41.05,76.489,15.114,15.114,0,0,1,37.493,76.9ZM58.12,56.276a14.24,14.24,0,0,1,4.228.686A13.34,13.34,0,0,1,50.607,63.79a14.24,14.24,0,0,1-4.228-.686A13.492,13.492,0,0,1,58.12,56.276ZM2.525,2.324H84.489v43H2.525Z" transform="translate(0 -0.324)"/><g transform="translate(5.46 4.353)"><path class="e" d="M30.9,61.368V38.05A7.066,7.066,0,0,0,38.034,30.9h62.793a7.066,7.066,0,0,0,7.133,7.149V61.368a7.066,7.066,0,0,0-7.133,7.149H38.034A7.066,7.066,0,0,0,30.9,61.368Z" transform="translate(-30.901 -30.901)"/></g><g transform="translate(13.948 13.763)"><circle class="h" cx="10.951" cy="10.951" r="10.951" transform="translate(18.693)"/><circle class="i" cx="3.421" cy="3.421" r="3.421" transform="translate(52.277 7.242)"/><circle class="i" cx="3.421" cy="3.421" r="3.421" transform="translate(0 7.242)"/><g transform="translate(25.751 4.705)"><path class="e" d="M80.348,2.706a.264.264,0,0,0-.2-.076H78.7a2.936,2.936,0,0,0-.543-1.222h1.977a.261.261,0,0,0,.271-.271V.271A.261.261,0,0,0,80.136,0H73.077a.261.261,0,0,0-.271.271V1.4a.275.275,0,0,0,.271.271h1.23q1.79,0,2.274.959h-3.5a.261.261,0,0,0-.271.271v.865a.261.261,0,0,0,.271.271H76.7A1.658,1.658,0,0,1,75.83,5.1a3.829,3.829,0,0,1-1.8.365h-.95a.275.275,0,0,0-.271.271V6.812A.254.254,0,0,0,72.882,7q1.629,1.731,4.225,4.844a.25.25,0,0,0,.212.1h1.654a.246.246,0,0,0,.246-.153.232.232,0,0,0-.034-.288q-2.477-3.037-3.894-4.547a4.3,4.3,0,0,0,2.342-.933,3.172,3.172,0,0,0,1.094-1.985h1.425a.261.261,0,0,0,.271-.271V2.9A.264.264,0,0,0,80.348,2.706Z" transform="translate(-72.806)"/></g></g><g transform="translate(10.602 55.181)"><rect class="g" width="2.734" height="2.734" transform="translate(63.063)"/><rect class="g" width="2.734" height="2.734" transform="translate(63.063 10.135)"/><rect class="g" width="2.734" height="2.734" transform="translate(63.063 20.398)"/><rect class="g" width="2.734" height="2.734"/><rect class="g" width="2.734" height="2.734" transform="translate(0 10.135)"/><rect class="g" width="2.734" height="2.734" transform="translate(0 20.398)"/></g></g></g></svg>