<svg xmlns="http://www.w3.org/2000/svg" xmlns:xlink="http://www.w3.org/1999/xlink" width="960" height="960" viewBox="0 0 960 960"><defs><style>.a{fill:#fff;}.b{clip-path:url(#a);}.c{fill:#ffd0b9;}.d{fill:#fff9eb;}.e{fill:#193e6c;}.f{fill:#ff757a;}.g{fill:#00b19c;}.h{fill:#fbb733;}.i{fill:none;}</style><clipPath id="a"><rect class="a" width="960" height="960" transform="translate(960 120)"/></clipPath></defs><g class="b" transform="translate(-960 -120)"><rect class="c" width="960" height="960" transform="translate(960 120)"/><g transform="translate(-10270 -1283)"><rect class="d" width="320" height="960" transform="translate(11550 1403)"/><g transform="translate(11624 1451.556)"><path class="c" d="M0,77.974A77.968,77.968,0,0,1,77.966,0V77.974Z" transform="translate(0 0.843)"/><path class="c" d="M0,155.527V0A78.134,78.134,0,0,1,29.836,5.919,77.987,77.987,0,0,1,55.13,22.777a77.755,77.755,0,0,1,16.9,25.228,77.576,77.576,0,0,1,0,59.517,77.753,77.753,0,0,1-16.9,25.228,77.985,77.985,0,0,1-25.294,16.858A78.134,78.134,0,0,1,0,155.527Z" transform="translate(93.137 93.362)"/><path class="e" d="M77.966,38.987A38.985,38.985,0,0,1,38.983,77.974H0V0H38.983A38.985,38.985,0,0,1,77.966,38.987Z" transform="translate(93.137)"/><circle class="e" cx="38.701" cy="38.701" r="38.701" transform="translate(0.798 97.351)"/></g><g transform="translate(-379 -13)"><g transform="translate(11929 1736)"><rect class="c" width="320" height="320"/></g><g transform="translate(12006 1780)"><path class="d" d="M19.763,222.222A115.834,115.834,0,0,1,0,220.527V1.7a115.932,115.932,0,0,1,42.522.562A113.256,113.256,0,0,1,99.616,32.544a112.317,112.317,0,0,1,13.79,16.444,110.567,110.567,0,0,1,10.412,18.874,109.256,109.256,0,0,1,6.58,20.857,110.427,110.427,0,0,1,0,44.786,109.254,109.254,0,0,1-6.58,20.857,110.568,110.568,0,0,1-10.412,18.874,112.319,112.319,0,0,1-13.79,16.444,113.279,113.279,0,0,1-57.094,30.286A115.563,115.563,0,0,1,19.763,222.222Z" transform="translate(33.778)"/><path class="e" d="M53.333,0h0a0,0,0,0,1,0,0V160A53.333,53.333,0,0,1,0,213.333H0a0,0,0,0,1,0,0v-160A53.333,53.333,0,0,1,53.333,0Z" transform="translate(0 17.778)"/></g></g><g transform="translate(11625 2096)"><g transform="translate(73.778)"><circle class="e" cx="28.444" cy="28.444" r="28.444"/><circle class="e" cx="28.444" cy="28.444" r="28.444" transform="translate(0 156.444)"/><circle class="c" cx="14.222" cy="14.222" r="14.222" transform="translate(14.222 92.444)"/></g><path class="e" d="M53.333,0h0a0,0,0,0,1,0,0V160A53.333,53.333,0,0,1,0,213.333H0a0,0,0,0,1,0,0v-160A53.333,53.333,0,0,1,53.333,0Z"/></g></g><rect class="d" width="320" height="320" transform="translate(1600 440)"/><path class="f" d="M764.936,437.7H687.7a77.234,77.234,0,0,0,77.234,77.235h0Z" transform="translate(1155.436 -317.699)"/><g transform="translate(-13560 -1603)"><g transform="translate(14520 1748)"><rect class="c" width="320" height="320" transform="translate(0 -26)"/></g><g transform="translate(14559 1761)"><g transform="translate(0 0)"><path class="e" d="M531.372,0h0A120.665,120.665,0,0,0,410.707,120.665h0A120.665,120.665,0,0,0,531.372,0Z" transform="translate(-290.042 0)"/><path class="g" d="M410.707,0h0A120.665,120.665,0,0,1,531.372,120.665h0A120.665,120.665,0,0,1,410.707,0Z" transform="translate(-410.707 0)"/></g><g transform="translate(0 120.665)"><path class="h" d="M531.372,120.665h0A120.665,120.665,0,0,1,410.707,0h0A120.665,120.665,0,0,1,531.372,120.665Z" transform="translate(-290.042 0)"/><path class="f" d="M410.707,120.665h0A120.665,120.665,0,0,0,531.372,0h0A120.665,120.665,0,0,0,410.707,120.665Z" transform="translate(-410.707 0)"/></g><g transform="translate(77.333 77.333)"><path class="a" d="M496.167,228.76a43.466,43.466,0,1,1,43.746-43.466A43.656,43.656,0,0,1,496.167,228.76Zm0-84.094a40.629,40.629,0,1,0,40.891,40.628A40.807,40.807,0,0,0,496.167,144.666Z" transform="translate(-452.421 -141.829)"/><path class="a" d="M496.942,214.352a28.288,28.288,0,1,1,28.47-28.287A28.411,28.411,0,0,1,496.942,214.352Zm0-53.738a25.451,25.451,0,1,0,25.615,25.45A25.562,25.562,0,0,0,496.942,160.614Z" transform="translate(-453.196 -142.599)"/></g></g></g><g transform="translate(-13560 -962)"><g transform="translate(14520 1748)"><rect class="c" width="320" height="320" transform="translate(0 -26)"/></g><g transform="translate(14559 1761)"><g transform="translate(0 0)"><path class="e" d="M531.372,0h0A120.665,120.665,0,0,0,410.707,120.665h0A120.665,120.665,0,0,0,531.372,0Z" transform="translate(-290.042 0)"/><path class="g" d="M410.707,0h0A120.665,120.665,0,0,1,531.372,120.665h0A120.665,120.665,0,0,1,410.707,0Z" transform="translate(-410.707 0)"/></g><g transform="translate(0 120.665)"><path class="h" d="M531.372,120.665h0A120.665,120.665,0,0,1,410.707,0h0A120.665,120.665,0,0,1,531.372,120.665Z" transform="translate(-290.042 0)"/><path class="f" d="M410.707,120.665h0A120.665,120.665,0,0,0,531.372,0h0A120.665,120.665,0,0,0,410.707,120.665Z" transform="translate(-410.707 0)"/></g><g transform="translate(77.333 77.333)"><path class="a" d="M496.167,228.76a43.466,43.466,0,1,1,43.746-43.466A43.656,43.656,0,0,1,496.167,228.76Zm0-84.094a40.629,40.629,0,1,0,40.891,40.628A40.807,40.807,0,0,0,496.167,144.666Z" transform="translate(-452.421 -141.829)"/><path class="a" d="M496.942,214.352a28.288,28.288,0,1,1,28.47-28.287A28.411,28.411,0,0,1,496.942,214.352Zm0-53.738a25.451,25.451,0,1,0,25.615,25.45A25.562,25.562,0,0,0,496.942,160.614Z" transform="translate(-453.196 -142.599)"/></g></g></g><g transform="translate(1600 760)"><rect class="c" width="320" height="320"/><g transform="translate(95.111 53.333)"><g transform="translate(73.778)"><circle class="e" cx="28.444" cy="28.444" r="28.444"/><circle class="e" cx="28.444" cy="28.444" r="28.444" transform="translate(0 156.444)"/><circle class="e" cx="14.222" cy="14.222" r="14.222" transform="translate(14.222 92.444)"/></g><path class="e" d="M53.333,0h0a0,0,0,0,1,0,0V160A53.333,53.333,0,0,1,0,213.333H0a0,0,0,0,1,0,0v-160A53.333,53.333,0,0,1,53.333,0Z"/></g></g><g transform="translate(-12715 -1661)"><rect class="i" width="320" height="320" transform="translate(14315 1780)"/><g transform="translate(14339 1801.321)"><path class="d" d="M0,0H62.349A25.778,25.778,0,0,1,88.127,25.778v0a0,0,0,0,1,0,0H25.778A25.778,25.778,0,0,1,0,0V0A0,0,0,0,1,0,0Z" transform="translate(147.52 131.79)"/><path class="e" d="M.09.77A9.968,9.968,0,0,1,3.945,0H182.419A9.954,9.954,0,0,1,188.3,1.913C175.852,42.516,138.5,72,94.368,72,49.816,72,12.183,41.964.09.77Z" transform="translate(46.93 169.419)"/><path class="d" d="M.105,6.052A10,10,0,0,1,9.3,0H182.437a10,10,0,0,1,10,10v3.57c-10.738,43.28-49.371,75.32-95.385,75.32C48.413,88.889,8.02,53.086.105,6.052Z" transform="translate(194.823 59.478) rotate(132)"/></g></g><g transform="translate(1600 439)"><rect class="i" width="320" height="320"/><g transform="translate(75.556 37.333)"><g transform="translate(65.778 0)"><circle class="c" cx="51.556" cy="51.556" r="51.556"/></g><path class="e" d="M53.333,0h0a0,0,0,0,1,0,0V160A53.333,53.333,0,0,1,0,213.333H0a0,0,0,0,1,0,0v-160A53.333,53.333,0,0,1,53.333,0Z" transform="translate(0 14.222)"/><path class="e" d="M48.889,0V59.556A48.889,48.889,0,0,1,0,108.444V48.889A48.889,48.889,0,0,1,48.889,0Z" transform="translate(53.333 144.843) rotate(-40)"/><g transform="translate(88.889 23.111)"><circle class="e" cx="28.444" cy="28.444" r="28.444"/></g></g></g></g></svg>