<svg xmlns="http://www.w3.org/2000/svg" width="700" height="150" viewBox="0 0 700 150"><defs><style>.a{fill:#193e6c;}.b{fill:none;}</style></defs><g transform="translate(14.426 -24.667)"><path class="a" d="M97.955,66.936l-.169,72.945H80.1l.169-11.354c-4.877,7.623-14.94,11.13-23.629,11.13-18.753,0-35.066-14.483-35.066-37.2,0-22.868,16.16-37.045,34.913-37.045,8.994,0,18.9,3.506,23.782,10.976V66.936Zm-17.992,35.37c0-12.5-10.366-20.43-20.58-20.43-10.976,0-19.97,8.538-19.97,20.43s8.994,20.734,19.97,20.734A20.331,20.331,0,0,0,79.963,102.306Z" transform="translate(0 9.845)"/><path class="a" d="M166.041,66.936l.076,72.945H148.43l-.076-11.354c-4.877,7.623-14.94,11.13-23.628,11.13-18.754,0-35.066-14.483-35.066-37.2,0-22.868,16.16-37.045,34.913-37.045,8.994,0,18.9,3.506,23.782,10.976V66.936Zm-17.992,35.37c0-12.5-10.366-20.43-20.58-20.43-10.976,0-19.97,8.538-19.97,20.43s8.994,20.734,19.97,20.734A20.331,20.331,0,0,0,148.049,102.306Z" transform="translate(25.063 9.845)"/><path class="a" d="M210.566,68.965l-3.508,16.769a22.259,22.259,0,0,0-10.366-2.591c-11.586,0-17.989,11.281-17.989,31.253v24.85H160.867V68.05H178.55V83.3c3.813-11.892,11.586-16.77,20.43-16.77C203.248,66.526,207.822,67.44,210.566,68.965Z" transform="translate(51.274 10.255)"/><path class="a" d="M279.035,66.936l-.14,72.945H261.209l.14-11.354c-4.877,7.623-14.94,11.13-23.629,11.13-18.753,0-35.066-14.483-35.066-37.2,0-22.868,16.16-37.045,34.913-37.045,9,0,18.9,3.506,23.782,10.976V66.936Zm-17.992,35.37c0-12.5-10.366-20.43-20.579-20.43-10.978,0-19.972,8.538-19.972,20.43s8.994,20.734,19.972,20.734A20.33,20.33,0,0,0,261.043,102.306Z" transform="translate(66.656 9.845)"/><path class="a" d="M386.98,99.3v39.943H369.449V100.675c0-11.435-5.946-17.075-14.178-17.075-10.216,0-16.618,7.623-15.856,20.429l-.152-.609v35.827H321.579V100.675c0-11.435-5.946-17.075-13.569-17.075-8.233,0-16.465,4.575-16.465,18.142v37.5H273.861V68.05h17.684v12.2c2.591-9,12.349-13.721,21.192-13.721,10.366,0,18.9,4.879,23.02,14.026,5.641-11.281,16.77-14.026,23.935-14.026C377.529,66.526,386.98,78.569,386.98,99.3Z" transform="translate(92.868 10.255)"/><path class="a" d="M447.746,112.3c0,22.716-16.313,37.2-35.066,37.2-8.537,0-18.751-3.506-23.63-11.13l.305,11.354H371.671l-.305-111.059H389.05V86.233c4.879-7.47,14.788-10.976,23.783-10.976C431.584,75.257,447.746,89.435,447.746,112.3Zm-17.685-.152a19.984,19.984,0,0,0-20.125-20.43c-10.213,0-20.58,7.928-20.58,20.43a20.332,20.332,0,0,0,20.58,20.734C420.913,132.884,430.06,124.042,430.06,112.151Z" transform="translate(128.76)"/><path class="a" d="M507.752,109.148v39.943H490.068V110.825c0-11.281-6.862-17.075-14.789-17.075-8.08,0-18.142,4.422-18.142,18.142v37.2H439.452V39.781h17.684V88.719c3.507-8.537,14.94-12.348,22.107-12.348C497.536,76.371,507.752,88.414,507.752,109.148Z" transform="translate(153.822 0.41)"/><rect class="b" width="700" height="150" transform="translate(-14.426 24.667)"/></g></svg>