<svg xmlns="http://www.w3.org/2000/svg" xmlns:xlink="http://www.w3.org/1999/xlink" width="170" height="170" viewBox="0 0 170 170"><defs><style>.a{fill:#fff9eb;}.b{clip-path:url(#a);}.c,.j{fill:#fbc458;}.c{opacity:0.45;}.d{fill:#ffb642;}.d,.f,.g{stroke:#193e6c;stroke-width:2px;}.e,.g{fill:#fff;}.e{opacity:0.2;}.e,.i{isolation:isolate;}.f{fill:#0074ff;}.h,.i{fill:#193e6c;}</style><clipPath id="a"><circle class="a" cx="80" cy="80" r="80" transform="translate(1126 3333)"/></clipPath></defs><g transform="translate(-582 -3473)"><circle class="a" cx="85" cy="85" r="85" transform="translate(582 3473)"/><g transform="translate(-544 150)"><g class="b"><path class="c" d="M-5911.469,79.832a26.007,26.007,0,0,1-23.872-21.865,25.976,25.976,0,0,1-7.721.61,26,26,0,0,1-24.124-27.75A26,26,0,0,1-5939.437,6.7a25.91,25.91,0,0,1,10.074,2.805,25.94,25.94,0,0,1,20.341-7.7,26,26,0,0,1,24.124,27.75,25.914,25.914,0,0,1-2.9,10.252,25.883,25.883,0,0,1,4.078,15.894,26,26,0,0,1-25.91,24.187C-5910.239,79.9-5910.851,79.875-5911.469,79.832Z" transform="matrix(0.978, 0.208, -0.208, 0.978, 6954.711, 4655.086)"/></g><g transform="translate(-496.85 45.257)"><path class="d" d="M26,3.677a12.676,12.676,0,0,1,0,17.851c-4.9,4.9-19.339,11.293-24.24,6.388S3.246,8.576,8.147,3.675A12.675,12.675,0,0,1,26,3.677Z" transform="matrix(1, -0.017, 0.017, 1, 1679.096, 3364.34)"/><path class="e" d="M0,1.233v.493A15.587,15.587,0,0,0,15.546,17.272h.329A11.89,11.89,0,0,0,0,1.233Z" transform="matrix(1, -0.017, 0.017, 1, 1690.498, 3365.247)"/><path class="f" d="M60.556,12.956C75.521,27.92,78.5,49.185,64.32,63.362L57.58,70.1C43.4,84.276,53.205,50.234,38.238,35.271S-10.851,30.2,3.412,15.931l6.739-6.739C24.328-4.985,45.593-2.01,60.557,12.955Z" transform="matrix(1, -0.017, 0.017, 1, 1669.626, 3327.743)"/><path class="g" d="M89.943,1.917C94.5,6.471,92.482,35.341,64.566,63.349c-18.2,18.115-29.665,24.5-29.665,24.5-12.164,8.226-18.027,2.624-25.728-5.076S-4.216,69.216,4.1,57.049c0,0,6.475-11.551,24.59-29.753C56.6-.62,85.393-2.72,89.943,1.917Z" transform="matrix(1, -0.017, 0.017, 1, 1689.094, 3288.906)"/><path class="h" d="M39.712,34.126c-12.689,8.488-18.815,2.713-26.776-5.25C4.885,20.825-.978,14.787,7.685,2.1L9,0A82.492,82.492,0,0,0,4.1,7.263C-4.216,19.427,1.473,25.29,9.173,32.99S22.736,46.2,34.9,38.066c0,0,5.425-3.063,14.79-10.852A95.037,95.037,0,0,1,39.712,34.126Z" transform="matrix(1, -0.017, 0.017, 1, 1689.965, 3338.686)"/><path class="h" d="M32.72.6c2.186,2.186-2.013,9.976-12.689,20.652S2.879,34.815.691,32.544C-1.495,30.358,1.3,23.88,11.984,13.2,22.743,2.525,30.445-1.675,32.72.6Z" transform="matrix(1, -0.017, 0.017, 1, 1692.72, 3346.613)"/><path class="i" d="M0,4.025A30.674,30.674,0,0,0,8.768,21.012a31.222,31.222,0,0,0,14.416,8.537C28.748,15.407,28.326,4.543,25.8,1.869,23.352-.718,13.237-1.149,0,4.025Z" transform="matrix(1, -0.017, 0.017, 1, 1753.044, 3287.824)"/><g transform="translate(1734.683 3313.268)"><path class="a" d="M18.7,3.218a10.953,10.953,0,1,1-15.489,0h0a10.929,10.929,0,0,1,15.456-.033Z" transform="matrix(1, -0.017, 0.017, 1, 0, 0.382)"/><path class="j" d="M10.9,2.626a8.367,8.367,0,1,1-5.864,2.45A8.367,8.367,0,0,1,10.9,2.626M10.9,0A10.593,10.593,0,0,0,3.2,3.238a10.983,10.983,0,0,0,7.7,18.726,10.594,10.594,0,0,0,7.7-3.237A10.929,10.929,0,0,0,18.63,3.271L18.6,3.238A10.594,10.594,0,0,0,10.9,0Z" transform="matrix(1, -0.017, 0.017, 1, 0.101, 0.381)"/></g></g></g></g></svg>