<svg xmlns="http://www.w3.org/2000/svg" width="231" height="64" viewBox="0 0 231 64"><defs><style>.a{fill:#193e6c;}.b{fill:none;}</style></defs><g transform="translate(-1123 223)"><g transform="translate(12 2)"><path class="a" d="M24.809,27.24V50.365H19.065v-3.12c-1.585,2.476-4.853,3.615-7.675,3.615C5.3,50.86,0,46.156,0,38.778,0,31.35,5.249,26.745,11.34,26.745c2.921,0,6.14,1.139,7.725,3.565V27.24ZM18.966,38.728a6.638,6.638,0,0,0-6.685-6.636,6.451,6.451,0,0,0-6.487,6.636,6.536,6.536,0,0,0,6.487,6.734,6.6,6.6,0,0,0,6.685-6.734" transform="translate(1123 -225.861)"/><path class="a" d="M92.9,27.24V50.365H87.151v-3.12c-1.585,2.476-4.853,3.615-7.675,3.615-6.091,0-11.39-4.7-11.39-12.083,0-7.428,5.249-12.033,11.34-12.033,2.921,0,6.14,1.139,7.725,3.565V27.24ZM87.052,38.728a6.638,6.638,0,0,0-6.685-6.636,6.451,6.451,0,0,0-6.487,6.636,6.536,6.536,0,0,0,6.487,6.734,6.6,6.6,0,0,0,6.685-6.734" transform="translate(1085.169 -225.861)"/><path class="a" d="M155.436,27.537,154.3,32.984a7.233,7.233,0,0,0-3.367-.842c-3.763,0-5.843,3.664-5.843,10.151v8.072h-5.793V27.24h5.744v4.952c1.238-3.862,3.763-5.447,6.635-5.447a8.472,8.472,0,0,1,3.763.792" transform="translate(1045.605 -225.861)"/><path class="a" d="M205.889,27.24V50.365h-5.744v-3.12c-1.585,2.476-4.853,3.615-7.675,3.615-6.091,0-11.39-4.7-11.39-12.083,0-7.428,5.249-12.033,11.34-12.033,2.921,0,6.14,1.139,7.725,3.565V27.24Zm-5.843,11.488a6.638,6.638,0,0,0-6.685-6.636,6.451,6.451,0,0,0-6.487,6.636,6.536,6.536,0,0,0,6.487,6.734,6.6,6.6,0,0,0,6.685-6.734" transform="translate(1022.387 -225.861)"/><path class="a" d="M289.03,37.391V50.365h-5.694V37.837c0-3.714-1.931-5.546-4.605-5.546-3.318,0-5.4,2.476-5.15,6.635l-.049-.2V50.365h-5.744V37.837c0-3.714-1.931-5.546-4.407-5.546-2.674,0-5.348,1.486-5.348,5.893V50.365h-5.744V27.24h5.744V31.2c.842-2.921,4.011-4.456,6.883-4.456a7.783,7.783,0,0,1,7.477,4.555,8.477,8.477,0,0,1,7.774-4.555c5.794,0,8.863,3.912,8.863,10.646" transform="translate(982.823 -225.861)"/><path class="a" d="M374.6,23.917C374.6,31.3,369.3,36,363.211,36c-2.773,0-6.091-1.139-7.675-3.615V35.5h-5.744V0h5.744V15.45c1.585-2.426,4.8-3.565,7.725-3.565,6.091,0,11.34,4.605,11.34,12.033m-5.744-.049a6.491,6.491,0,0,0-6.537-6.636,6.687,6.687,0,1,0,6.537,6.636" transform="translate(928.646 -211)"/><path class="a" d="M440.062,22.531V35.5h-5.744V23.076c0-3.665-2.229-5.546-4.8-5.546-2.625,0-5.893,1.436-5.893,5.893V35.5h-5.744V0h5.744V15.9c1.138-2.773,4.853-4.01,7.18-4.01,5.942,0,9.26,3.912,9.26,10.646" transform="translate(890.816 -211)"/></g><rect class="b" width="231" height="64" transform="translate(1123 -223)"/></g></svg>