<svg xmlns="http://www.w3.org/2000/svg" width="184.781" height="32" viewBox="0 0 184.781 32">
    <defs>
        <style>
            .cls-1{fill:#3a3a41}
        </style>
    </defs>
    <g id="logo_aarambh" transform="translate(-1123 211)">
        <path id="Path_26" d="M22.053 27.185v20.556h-5.106v-2.773c-1.409 2.2-4.313 3.213-6.822 3.213C4.71 48.181 0 44 0 37.441c0-6.6 4.666-10.7 10.08-10.7 2.6 0 5.458 1.012 6.866 3.169v-2.725zM16.859 37.4a5.9 5.9 0 0 0-5.942-5.9 5.734 5.734 0 0 0-5.767 5.9 5.809 5.809 0 0 0 5.766 5.986 5.87 5.87 0 0 0 5.943-5.986" class="cls-1" transform="translate(1123 -227.181)"/>
        <path id="Path_27" d="M90.139 27.185v20.556h-5.106v-2.773c-1.409 2.2-4.313 3.213-6.822 3.213-5.414 0-10.124-4.181-10.124-10.74 0-6.6 4.666-10.7 10.08-10.7 2.6 0 5.458 1.012 6.866 3.169v-2.725zM84.945 37.4A5.9 5.9 0 0 0 79 31.5a5.734 5.734 0 0 0-5.766 5.9A5.809 5.809 0 0 0 79 43.383a5.87 5.87 0 0 0 5.945-5.983" class="cls-1" transform="translate(1081.808 -227.181)"/>
        <path id="Path_28" d="M153.642 27.449l-1.012 4.842a6.429 6.429 0 0 0-2.993-.748c-3.345 0-5.194 3.257-5.194 9.023v7.175h-5.15V27.185h5.107v4.4c1.1-3.433 3.345-4.842 5.9-4.842a7.531 7.531 0 0 1 3.345.7" class="cls-1" transform="translate(1038.728 -227.181)"/>
        <path id="Path_29" d="M203.133 27.185v20.556h-5.106v-2.773c-1.409 2.2-4.313 3.213-6.822 3.213-5.414 0-10.124-4.181-10.124-10.74 0-6.6 4.666-10.7 10.08-10.7 2.6 0 5.458 1.012 6.866 3.169v-2.725zM197.939 37.4A5.9 5.9 0 0 0 192 31.5a5.734 5.734 0 0 0-5.766 5.9A5.809 5.809 0 0 0 192 43.383a5.87 5.87 0 0 0 5.942-5.986" class="cls-1" transform="translate(1013.446 -227.181)"/>
        <path id="Path_30" d="M284.947 36.208v11.533h-5.061V36.6c0-3.3-1.717-4.93-4.094-4.93-2.949 0-4.8 2.2-4.578 5.9l-.044-.176v10.347h-5.106V36.6c0-3.3-1.716-4.93-3.918-4.93-2.377 0-4.754 1.32-4.754 5.238v10.833h-5.106V27.185h5.106v3.521c.749-2.6 3.566-3.961 6.119-3.961a6.918 6.918 0 0 1 6.647 4.049 7.535 7.535 0 0 1 6.91-4.049c5.15 0 7.879 3.477 7.879 9.463" class="cls-1" transform="translate(970.366 -227.181)"/>
        <path id="Path_31" d="M371.844 21.26c0 6.559-4.71 10.74-10.124 10.74-2.465 0-5.414-1.012-6.822-3.213v2.773h-5.106V0h5.108v13.733c1.409-2.157 4.27-3.169 6.867-3.169 5.414 0 10.08 4.093 10.08 10.7m-5.106-.044a5.77 5.77 0 0 0-5.81-5.9 5.944 5.944 0 1 0 5.81 5.9" class="cls-1" transform="translate(911.375 -211)"/>
        <path id="Path_32" d="M437.6 20.028V31.56h-5.106V20.512c0-3.258-1.981-4.93-4.27-4.93-2.333 0-5.238 1.277-5.238 5.238v10.74h-5.106V0h5.106v14.129c1.012-2.465 4.313-3.565 6.382-3.565 5.282 0 8.231 3.477 8.231 9.463" class="cls-1" transform="translate(870.183 -211)"/>
    </g>
</svg>
