<svg xmlns="http://www.w3.org/2000/svg" xmlns:xlink="http://www.w3.org/1999/xlink" width="1200" height="202" viewBox="0 0 1200 202"><defs><style>.a{fill:#fff9eb;}.b{clip-path:url(#a);}.c{fill:#f90;opacity:0.1;}</style><clipPath id="a"><rect class="a" width="1200" height="202" transform="translate(720 878)"/></clipPath></defs><g class="b" transform="translate(-720 -878)"><g transform="translate(706 74.108)"><g transform="translate(-129 830.087)"><path class="c" d="M0,213.491l56.263-19.973c56.263-20.348,168.789-59.733,281.316-60.014,112.526.281,225.053,39.665,337.579,24.943,112.526-15.285,225.053-84.676,337.579-99.961,112.526-14.722,225.052,24.662,281.316,45.011l56.263,19.973V303.512H0Z" transform="translate(0 -42.24)"/><path class="c" d="M0,134.582l28.481,15.176c28.481,15.176,85.443,45.527,142.4,45.527s65.04-11.57,122-46.948c56.962-35.758,113.924-75.594,170.886-70.852s113.924,55.96,170.886,65.73c56.962,10.149,162.808-38.984,219.769-33.957,56.962,5.406,113.924,45.243,170.886,60.7,56.962,14.891,113.924,5.406,170.886,10.149s113.924,25.609,142.4,35.378l28.481,10.149v91.054H0Z" transform="translate(82.112 -65.024)"/><path class="c" d="M0,245.208l44-24.474c44-24.107,132-73.606,219.992-68.381,88,4.858,175.994,63.523,263.991,58.665,88-5.225,175.994-73.056,263.991-83.139s175.994,39.415,263.991,63.523c88,24.474,175.994,24.474,219.992,24.474h44v88H0Z" transform="translate(23.055 -126.542)"/></g></g></g></svg>