<svg xmlns="http://www.w3.org/2000/svg" width="228" height="220" viewBox="0 0 228 220"><defs><style>.a{fill:#fff9eb;}.b{fill:#fff;}.b,.c,.d{stroke:#00305a;}.b,.g{stroke-width:2px;}.c{fill:#00b19c;}.d{fill:#0074ff;stroke-width:1.5px;}.e{fill:#00305a;}.f{fill:#e7ebf0;}.g,.i{fill:#fbc458;}.g,.j{stroke:#193e6c;}.h{fill:#f6b73b;opacity:0.4;}.j{fill:none;}</style></defs><g transform="translate(-831 -6111)"><circle class="a" cx="110" cy="110" r="110" transform="translate(831 6111)"/><g transform="translate(891 6179)"><rect class="b" width="88.942" height="55.999" transform="translate(6 26.353)"/><path class="c" d="M187.671,284.738h-29.63a1.226,1.226,0,0,1-1.185-1.263V262a1.226,1.226,0,0,1,1.185-1.263h29.63A1.226,1.226,0,0,1,188.856,262v21.473A1.226,1.226,0,0,1,187.671,284.738Z" transform="translate(-138.056 -218.238)"/><path class="d" d="M2,0H22a2,2,0,0,1,2,2V40a0,0,0,0,1,0,0H0a0,0,0,0,1,0,0V2A2,2,0,0,1,2,0Z" transform="translate(61.139 42.5)"/><path class="e" d="M217.979,367.683H122.45a1.647,1.647,0,0,1,0-3.294h95.529a1.647,1.647,0,0,1,0,3.294Z" transform="translate(-119.156 -283.683)"/><path class="f" d="M-8851-5713h6v53h-6Z" transform="translate(8858 5741)"/><path class="g" d="M218.414,166.626a12.767,12.767,0,0,1-24.315,5.441,1.328,1.328,0,0,0-2.429,0,12.77,12.77,0,0,1-23.1,0,1.328,1.328,0,0,0-2.429,0,12.77,12.77,0,0,1-23.1,0,1.328,1.328,0,0,0-2.429,0,12.767,12.767,0,0,1-24.315-5.441l12.228-21.4a3.294,3.294,0,0,1,2.86-1.66h71.941a3.294,3.294,0,0,1,2.86,1.66Z" transform="translate(-116.296 -144.567)"/><path class="h" d="M202.423,143.565H130.9a2.557,2.557,0,0,0-2.306.7l-5.962,10.175,87.424-.357-5.141-9.033A3.027,3.027,0,0,0,202.423,143.565Z" transform="translate(-115.412 -143.049)"/></g><g transform="translate(981 6139)"><circle class="i" cx="3" cy="3" r="3"/><circle class="i" cx="3" cy="3" r="3" transform="translate(24)"/><circle class="i" cx="3" cy="3" r="3" transform="translate(48)"/><circle class="i" cx="3" cy="3" r="3" transform="translate(72)"/><circle class="i" cx="3" cy="3" r="3" transform="translate(24 14)"/><circle class="i" cx="3" cy="3" r="3" transform="translate(0 14)"/><circle class="i" cx="3" cy="3" r="3" transform="translate(48 14)"/><circle class="i" cx="3" cy="3" r="3" transform="translate(72 14)"/></g><path class="j" d="M.419,22.518l100.992-.373" transform="translate(891 6179)"/></g></svg>