<svg xmlns="http://www.w3.org/2000/svg" xmlns:xlink="http://www.w3.org/1999/xlink" width="543" height="270" viewBox="0 0 543 270"><defs><style>.a{fill:#fff;}.a,.d,.e{stroke:#e5f1ff;}.b{fill:#e5f1ff;}.c,.d,.e,.h{fill:none;}.c{stroke:#0074ff;stroke-dasharray:5;}.d,.e{stroke-width:17px;}.e{stroke-linecap:round;}.f{fill:#193e6c;font-size:20px;font-family:SofiaProMedium, Sofia Pro;}.g{stroke:none;}.i{filter:url(#a);}</style><filter id="a" x="83" y="0" width="460" height="270" filterUnits="userSpaceOnUse"><feOffset dy="5" input="SourceAlpha"/><feGaussianBlur stdDeviation="20" result="b"/><feFlood flood-color="#c5ccd6" flood-opacity="0.49"/><feComposite operator="in" in2="b"/><feComposite in="SourceGraphic"/></filter></defs><g transform="translate(-1270 -439)"><g class="i" transform="matrix(1, 0, 0, 1, 1270, 439)"><g class="a" transform="translate(143 55)"><rect class="g" width="340" height="150" rx="20"/><rect class="h" x="0.5" y="0.5" width="339" height="149" rx="19.5"/></g></g><g transform="translate(969.003)"><rect class="b" width="202" height="21" transform="translate(300.997 563)"/><path class="c" d="M2672.488,3369.5h201.875" transform="translate(-2371.488 -2796)"/></g><path class="d" d="M3072.874,3256.408s19.817-.172,28.089-17.06c3.813-7.785,12.7-12.111,21.481-14.6a84.4,84.4,0,0,1,18.955-2.9" transform="translate(-1516.943 -2684.352)"/><g transform="translate(-34)"><path class="e" d="M3072.874,3221.852s19.817.172,28.089,17.06,40.436,17.5,40.436,17.5" transform="translate(-1482.943 -2650.352)"/><path class="c" d="M3072.874,3221.852s19.817.172,28.089,17.06,40.436,17.5,40.436,17.5" transform="translate(-1482.943 -2650.352)"/></g><g transform="translate(50 26)"><g class="a" transform="translate(1557 552)"><rect class="g" width="130" height="45" rx="22.5"/><rect class="h" x="0.5" y="0.5" width="129" height="44" rx="22"/></g><text class="f" transform="translate(1579 582)"><tspan x="0" y="0">Inventory</tspan></text></g><path class="c" d="M3072.874,3256.408s19.817-.172,28.089-17.06,40.436-17.5,40.436-17.5" transform="translate(-1516.943 -2684.352)"/><g transform="translate(-121 -3)"><g class="a" transform="translate(1557 553)"><rect class="g" width="130" height="45" rx="22.5"/><rect class="h" x="0.5" y="0.5" width="129" height="44" rx="22"/></g><text class="f" transform="translate(1591 582)"><tspan x="0" y="0">Orders</tspan></text></g><g transform="translate(50 -37)"><g class="a" transform="translate(1557 552)"><rect class="g" width="130" height="45" rx="22.5"/><rect class="h" x="0.5" y="0.5" width="129" height="44" rx="22"/></g><text class="f" transform="translate(1585 582)"><tspan x="0" y="0">Delivery</tspan></text></g></g></svg>