<svg xmlns="http://www.w3.org/2000/svg" width="238" height="237" viewBox="0 0 238 237"><defs><style>.a{fill:#fff9eb;}.b,.c,.f{fill:#fbc458;}.c{opacity:0.5;}.d{fill:#fff;}.d,.f,.g,.i,.j{stroke:#193e6c;stroke-width:2px;}.e,.k{fill:#193e6c;}.e{opacity:0.1;}.g,.h{fill:#f2b845;}.i{fill:none;}.j{fill:#0074ff;}.l{fill:#c2624b;}.m{fill:#8f473b;}</style></defs><g transform="translate(-258 -2666)"><circle class="a" cx="110" cy="110" r="110" transform="translate(276 2666)"/><g transform="translate(-1507 1266)"><circle class="b" cx="3" cy="3" r="3" transform="translate(1765 1559)"/><circle class="b" cx="3" cy="3" r="3" transform="translate(1789 1559)"/><circle class="b" cx="3" cy="3" r="3" transform="translate(1813 1559)"/><circle class="b" cx="3" cy="3" r="3" transform="translate(1837 1559)"/><circle class="b" cx="3" cy="3" r="3" transform="translate(1789 1583)"/><circle class="b" cx="3" cy="3" r="3" transform="translate(1813 1583)"/><circle class="b" cx="3" cy="3" r="3" transform="translate(1837 1583)"/><circle class="b" cx="3" cy="3" r="3" transform="translate(1813 1607)"/><circle class="b" cx="3" cy="3" r="3" transform="translate(1837 1607)"/><g transform="translate(0 72)"><circle class="b" cx="3" cy="3" r="3" transform="translate(1837 1559)"/></g></g><g transform="translate(245.895 2614.561)"><g transform="translate(171.714 90.595)"><path class="c" d="M343.69,184.136a14.09,14.09,0,0,1-9.888-4.006,2.093,2.093,0,1,1,2.929-2.99,10,10,0,0,0,13.919,0,12.287,12.287,0,0,0,0-17.642,16.8,16.8,0,0,0-23.388-.013,2.093,2.093,0,1,1-2.929-2.99,21.007,21.007,0,0,1,29.245.013,16.471,16.471,0,0,1,0,23.621A14.089,14.089,0,0,1,343.69,184.136Z" transform="translate(-322.022 -125.952)"/><path class="c" d="M320.509,141.977a2.093,2.093,0,0,1-1.611-3.428c.165-.2,4.072-4.914,5.485-6.49a4.819,4.819,0,0,0,.041-6.887,3.245,3.245,0,0,0-4.785,0,2.068,2.068,0,0,0,0,3.14,2.093,2.093,0,0,1-3.034,2.884,6.24,6.24,0,0,1,0-8.907,7.43,7.43,0,0,1,10.853,0,8.987,8.987,0,0,1,.041,12.564c-1.358,1.516-5.338,6.318-5.378,6.366A2.085,2.085,0,0,1,320.509,141.977Z" transform="translate(-316.736 -107.889)"/><path class="c" d="M342.17,99.275a2.092,2.092,0,0,1-2.092-2.092,3.582,3.582,0,0,0-1.454-2.732,2.093,2.093,0,1,1,2.256-3.525,7.714,7.714,0,0,1,3.383,6.257A2.093,2.093,0,0,1,342.17,99.275Z" transform="translate(-330.248 -90.595)"/><path class="c" d="M321.84,105.453a2.087,2.087,0,0,1-1.4-.537,3.251,3.251,0,0,0-1.418-.4,2.093,2.093,0,0,1,.231-4.179,7.016,7.016,0,0,1,3.987,1.464,2.093,2.093,0,0,1-1.4,3.648Z" transform="translate(-316.104 -96.338)"/><path class="c" d="M403.46,162.409a2.09,2.09,0,0,1-1.735-.919,3.313,3.313,0,0,0-1.271-.722,2.093,2.093,0,0,1,1.218-4,7.017,7.017,0,0,1,3.519,2.379,2.093,2.093,0,0,1-1.73,3.267Z" transform="translate(-364.388 -129.545)"/></g><path class="d" d="M128.189,238.987a80.093,80.093,0,0,0-27.8,18.078L75.078,282.381a10.148,10.148,0,0,0,0,14.35l19.133,19.134a10.148,10.148,0,0,0,14.35,0l25.316-25.316a80.09,80.09,0,0,0,18.078-27.8l-4.708-19.059Z" transform="translate(0 -87.472)"/><path class="e" d="M147.451,275.748A73.644,73.644,0,0,1,129.619,304.6h0L104.3,329.918a3.867,3.867,0,0,1-5.472,0L79.7,310.784a6.279,6.279,0,0,0-7.286-1.155,10.1,10.1,0,0,0,2.847,5.594l19.133,19.133a10.147,10.147,0,0,0,14.35,0l25.316-25.316a80.085,80.085,0,0,0,18.078-27.8l-2.69-10.887q-1.07,2.626-1.993,5.385Z" transform="translate(-0.18 -105.12)"/><path class="f" d="M233.754,224.792A80.1,80.1,0,0,1,253.1,193.484l3.372-3.372-9.567-9.567-3.372,3.372a80.1,80.1,0,0,1-31.308,19.349c-1.183.395-2.352.823-3.512,1.271L232.483,228.3C232.931,227.144,233.36,225.975,233.754,224.792Z" transform="translate(-80.527 -53.023)"/><g transform="translate(147.061 117.46)"><path class="g" d="M316.734,166.1l-9.567-9.567a1.691,1.691,0,0,0-2.392,0l-9.567,9.567a1.691,1.691,0,0,0,0,2.392l9.567,9.567a1.692,1.692,0,0,0,2.392,0l9.567-9.567A1.691,1.691,0,0,0,316.734,166.1Z" transform="translate(-278.28 -156.035)"/><path class="h" d="M293.138,176.129l-3.076-3.076c-1.029.579-.656.321-9.1,8.76a6.3,6.3,0,0,0-4.227,1.835h0c-11.453,11.455-17.042,21.567-21.462,34.459a47.434,47.434,0,0,0,3.962,3.9c2.555-6.619,6.091-18.068,21.94-33.916a1.691,1.691,0,0,0,2.391,0l9.567-9.567A1.691,1.691,0,0,0,293.138,176.129Z" transform="translate(-254.684 -166.067)"/><path class="i" d="M316.734,166.1l-9.567-9.567a1.691,1.691,0,0,0-2.392,0l-9.567,9.567a1.691,1.691,0,0,0,0,2.392l9.567,9.567a1.692,1.692,0,0,0,2.392,0l9.567-9.567A1.691,1.691,0,0,0,316.734,166.1Z" transform="translate(-278.28 -156.035)"/></g><path class="j" d="M144.484,312.731l-8.658-8.658-4.329-4.329a6.122,6.122,0,0,0-8.658,0L105.33,317.251a6.122,6.122,0,0,0,0,8.658l4.329,4.329,8.658,8.658a6.122,6.122,0,0,0,8.658,0l17.508-17.508A6.122,6.122,0,0,0,144.484,312.731Z" transform="translate(-18.527 -122.229)"/><circle class="k" cx="6.976" cy="6.976" r="6.976" transform="translate(133.096 156.423)"/><path class="l" d="M377.964,101.874l-6.738,7.475a2.261,2.261,0,0,0,.28,3.192l2.978,2.489a2.261,2.261,0,0,0,3.178-.278l6.75-7.489Z" transform="translate(-176.007 -6.649)"/><path class="m" d="M385.505,104.135c-2.8-2.341-3.7-5.391-2.131-7.251s4.739-1.511,7.541.831,3.7,5.391,2.131,7.251S388.307,106.476,385.505,104.135Z" transform="translate(-183.029 -3.005)"/><path class="i" d="M233.754,224.792A80.1,80.1,0,0,1,253.1,193.484l.777-.756c-1.387-1.387-7.764-8.88-9.151-10.267l-1.193,1.456a80.1,80.1,0,0,1-31.308,19.349c-1.183.395-2.352.823-3.512,1.271L232.483,228.3C232.931,227.144,233.36,225.975,233.754,224.792Z" transform="translate(-80.527 -53.022)"/></g></g></svg>