<svg xmlns="http://www.w3.org/2000/svg" width="105.641" height="103.216" viewBox="0 0 105.641 103.216"><defs><style>.a{fill:#f90;}</style></defs><path class="a" d="M26.66,34.018c.454-2.454,3.588-2.784,5.2-1.361,2.845,2.495,5.608,5.113,8.495,7.588,2.33,2,6.1,4,6.7,7.155A1.957,1.957,0,0,1,45.2,49.832c-3.34-.021-5.794-3.2-8.206-5.237C39.938,52.141,43.3,59.543,48.6,65.75c0,0,10.335,15.112,19.348,11.529,4.847-2.867,11.8-12.152,13.507-17.41,1.876-5.835,3.423-11.794,4.887-17.753,1.485-6.124,2.866-12.289,4.412-18.412.784-3.052,1.485-6.124,2.083-9.217.639-3.258.948-6.722,2.144-9.814a1.668,1.668,0,0,1,3.258.433c.6,5.629-1.052,11.9-1.753,17.485-.7,5.485-1.732,10.887-2.928,16.289-1.278,5.753-2.928,11.443-4.619,17.072a75.223,75.223,0,0,1-5.464,14.33c-4.165,7.65-10.315,13.3-18.422,13.139-9.705.425-16.742-8.412-21.918-15.34-5.794-7.773-9.526-17.113-12-26.495-.268,1.01-.495,2.041-.783,3.052-.66,2.227-.825,4.763-3.052,5.876a1.371,1.371,0,0,1-1.588-.206c-1.753-2.082-.866-4.454-.536-6.99C25.567,40.2,26.1,37.11,26.66,34.018Z" transform="matrix(0.485, 0.875, -0.875, 0.485, 61.02, -23.265)"/></svg>