<svg xmlns="http://www.w3.org/2000/svg" width="41.187" height="32" viewBox="0 0 41.187 32"><defs><style>.a{fill:#193e6c;}</style></defs><g transform="translate(0 -39.159)"><path class="a" d="M8.484,51.847c.5-3.159,4.451-6.533,7.538-6.6a.815.815,0,0,0,.574-.215.59.59,0,0,0,.359-.359c1.077-2.01.5-3.589-1.292-4.881-2.082-1.508-5.384,0-7.035,1.364C4.464,44.6.228,50.555.444,56.226a23.74,23.74,0,0,0,.5,11.27A5.311,5.311,0,0,0,5.9,70.871c2.154.144,6.6.79,8.543-.5s2.082-3.8,2.3-5.958c.215-2.369.861-6.82-1.149-8.686C13.581,53.929,7.838,55.867,8.484,51.847Z"/><path class="a" d="M210.444,51.847c.5-3.159,4.451-6.533,7.538-6.6a.815.815,0,0,0,.574-.215.59.59,0,0,0,.359-.359c1.077-2.01.5-3.589-1.292-4.881-2.082-1.508-5.384,0-7.035,1.364-4.164,3.446-8.4,9.4-8.184,15.075a23.741,23.741,0,0,0,.5,11.27,5.311,5.311,0,0,0,4.953,3.374c2.154.144,6.6.79,8.543-.5s2.082-3.8,2.3-5.958c.215-2.369.861-6.82-1.149-8.686C215.541,53.929,209.726,55.867,210.444,51.847Z" transform="translate(-178.271)"/></g></svg>