<svg xmlns="http://www.w3.org/2000/svg" xmlns:xlink="http://www.w3.org/1999/xlink" width="1193" height="511" viewBox="0 0 1193 511"><defs><style>.a{fill:#fff;stroke:#707070;}.b{clip-path:url(#a);}.c{fill:url(#b);}.d{fill:url(#c);}.e{fill:url(#d);}.f{fill:url(#e);}.g{fill:url(#f);}.h{fill:url(#g);}.i{fill:url(#h);}</style><clipPath id="a"><rect class="a" width="1193" height="511" transform="translate(727 901)"/></clipPath><linearGradient id="b" x1="-7.111" y1="12.561" x2="-0.012" y2="-4.979" gradientUnits="objectBoundingBox"><stop offset="0" stop-color="#ffcb66"/><stop offset="1" stop-color="#ffe8a9" stop-opacity="0"/></linearGradient><linearGradient id="c" x1="-2.608" y1="5.337" x2="1.176" y2="-2.117" xlink:href="#b"/><linearGradient id="d" x1="-10.525" y1="4.449" x2="6.38" y2="-3.007" xlink:href="#b"/><linearGradient id="e" x1="-16.733" y1="3" x2="7.715" y2="-4.457" xlink:href="#b"/><linearGradient id="f" x1="-19.405" y1="1.503" x2="6.233" y2="-5.95" xlink:href="#b"/><linearGradient id="g" x1="-2.335" y1="0.502" x2="2.031" y2="-6.956" xlink:href="#b"/><linearGradient id="h" x1="-0.728" y1="0.003" x2="2.909" y2="-8.564" xlink:href="#b"/></defs><g class="b" transform="translate(-727 -901)"><g transform="translate(679.33 460.369)"><g transform="translate(0)"><g transform="translate(712.167 1342.811) rotate(-132)"><path class="c" d="M0,57.49C51.359,38.367,104.951,19.163,151.357,0V4.385C105.682,22.939,53.836,41.453,4.019,60.007Z" transform="translate(863.643 0)"/><path class="d" d="M277.136.974c.893-.325,1.746-.65,2.72-.974l4.019,2.517c-.853.325-1.746.65-2.517.974C155.579,49.37,54.932,95.288,4.913,141.166,3.248,140.354,1.583,139.5,0,138.649,50.425,92.771,151.438,46.893,277.136.974Z" transform="translate(583.787 57.49)"/><path class="e" d="M57.551.974c.365-.325.771-.65,1.1-.974C60.231.853,61.9,1.705,63.56,2.517a14.351,14.351,0,0,0-1.1.934C10.74,49.37,1.077,95.248,7.411,141.166c-1.908-.853-3.857-1.705-5.806-2.558C-4.526,92.771,5.421,46.852,57.551.974Z" transform="translate(525.14 196.139)"/><path class="f" d="M.122.974,0,0C1.949.853,3.9,1.705,5.806,2.558l.162.934c6.415,45.919,28.1,91.837,38,137.715-1.908-.853-3.816-1.705-5.806-2.558C28.1,92.771,6.455,46.893.122.974Z" transform="translate(526.744 334.747)"/><path class="g" d="M31.343.974,31.1,0c1.989.853,3.9,1.705,5.806,2.558a4.006,4.006,0,0,1,.122.974c9.785,45.878,7.552,91.756-32.48,137.634L0,138.69C39.5,92.771,41.331,46.852,31.343.974Z" transform="translate(533.809 473.396)"/><path class="h" d="M240.677.934,241.529,0l4.547,2.477-.812,1.015C206.289,49.37,122.45,95.248,3.045,141.126c-.974-.812-1.949-1.665-3.045-2.477C119.039,92.73,202.188,46.812,240.677.934Z" transform="translate(292.279 612.086)"/><path class="i" d="M292.279,0c1.1.812,2.071,1.665,3.045,2.477l-2.477,1.015C191.754,43.28,66.828,83.027,0,122.815v-4.344C68.086,79.292,190.7,40.113,289.884.934Z" transform="translate(0 750.735)"/></g><g transform="translate(679.167 1338.811) rotate(-132)"><path class="c" d="M0,57.49C51.359,38.367,104.951,19.163,151.357,0V4.385C105.682,22.939,53.836,41.453,4.019,60.007Z" transform="translate(863.643 0)"/><path class="d" d="M277.136.974c.893-.325,1.746-.65,2.72-.974l4.019,2.517c-.853.325-1.746.65-2.517.974C155.579,49.37,54.932,95.288,4.913,141.166,3.248,140.354,1.583,139.5,0,138.649,50.425,92.771,151.438,46.893,277.136.974Z" transform="translate(583.787 57.49)"/><path class="e" d="M57.551.974c.365-.325.771-.65,1.1-.974C60.231.853,61.9,1.705,63.56,2.517a14.351,14.351,0,0,0-1.1.934C10.74,49.37,1.077,95.248,7.411,141.166c-1.908-.853-3.857-1.705-5.806-2.558C-4.526,92.771,5.421,46.852,57.551.974Z" transform="translate(525.14 196.139)"/><path class="f" d="M.122.974,0,0C1.949.853,3.9,1.705,5.806,2.558l.162.934c6.415,45.919,28.1,91.837,38,137.715-1.908-.853-3.816-1.705-5.806-2.558C28.1,92.771,6.455,46.893.122.974Z" transform="translate(526.744 334.747)"/><path class="g" d="M31.343.974,31.1,0c1.989.853,3.9,1.705,5.806,2.558a4.006,4.006,0,0,1,.122.974c9.785,45.878,7.552,91.756-32.48,137.634L0,138.69C39.5,92.771,41.331,46.852,31.343.974Z" transform="translate(533.809 473.396)"/><path class="h" d="M240.677.934,241.529,0l4.547,2.477-.812,1.015C206.289,49.37,122.45,95.248,3.045,141.126c-.974-.812-1.949-1.665-3.045-2.477C119.039,92.73,202.188,46.812,240.677.934Z" transform="translate(292.279 612.086)"/><path class="i" d="M292.279,0c1.1.812,2.071,1.665,3.045,2.477l-2.477,1.015C191.754,43.28,66.828,83.027,0,122.815v-4.344C68.086,79.292,190.7,40.113,289.884.934Z" transform="translate(0 750.735)"/></g></g></g></g></svg>