<svg xmlns="http://www.w3.org/2000/svg" width="64" height="64" viewBox="0 0 64 64"><defs><style>.a{fill:#fbc458;}.b{fill:#193e6c;}.c{fill:#fafafa;}</style></defs><g transform="translate(-0.188 -0.066)"><circle class="a" cx="32" cy="32" r="32" transform="translate(0.188 0.066)"/><g transform="translate(12.025 16.102)"><path class="b" d="M301.729,138.355a2.008,2.008,0,0,1-2.007-2.007,4.014,4.014,0,0,0-8.028,0,2.007,2.007,0,1,1-4.014,0,8.028,8.028,0,0,1,16.057,0A2.005,2.005,0,0,1,301.729,138.355Z" transform="translate(-263.595 -128.32)"/><path class="b" d="M109.729,138.355a2.008,2.008,0,0,1-2.007-2.007,4.014,4.014,0,0,0-8.028,0,2.007,2.007,0,0,1-4.014,0,8.028,8.028,0,0,1,16.057,0A2.005,2.005,0,0,1,109.729,138.355Z" transform="translate(-95.68 -128.32)"/></g><path class="c" d="M116.459,289.119a2.01,2.01,0,0,0-1.6-.8H72.392a2.014,2.014,0,0,0-1.935,2.553,24.076,24.076,0,0,0,46.331,0A1.989,1.989,0,0,0,116.459,289.119Z" transform="translate(-61.531 -252.147)"/></g></svg>