<svg xmlns="http://www.w3.org/2000/svg" xmlns:xlink="http://www.w3.org/1999/xlink" width="169" height="169" viewBox="0 0 169 169"><defs><style>.a{fill:#fff9eb;}.b{clip-path:url(#a);}.c{fill:#fbc458;}.c,.f,.h{stroke:#193e6c;}.c,.f{stroke-width:3px;}.d{fill:#193e6c;}.e{fill:#f9cfa9;}.f{fill:#fff;}.g{fill:#fbbc8d;}.h{fill:none;stroke-width:2px;opacity:0.84;}.i{fill:#0074ff;}</style><clipPath id="a"><circle class="a" cx="84.5" cy="84.5" r="84.5" transform="translate(583 2595)"/></clipPath></defs><g transform="translate(-583 -2595)"><g class="b"><circle class="a" cx="84.5" cy="84.5" r="84.5" transform="translate(583 2595)"/><g transform="translate(604.435 2609.93)"><path class="c" d="M154.41,17.6h-7.527a1.285,1.285,0,0,0-1.285,1.284,3.1,3.1,0,0,1-3.1,3.1H115.671a3.1,3.1,0,0,1-3.1-3.1l-.09-.1-1-1.166-.191-.014h-7.527a3.753,3.753,0,0,0-3.754,3.753v87.61h58.155V21.35A3.753,3.753,0,0,0,154.41,17.6Zm0,0" transform="translate(-70.587 -12.437)"/><path class="d" d="M0,.078H35.178l-1.16,5.39H2.318Z" transform="translate(40.565 3.564)"/><path class="e" d="M226.1,175.884a38.25,38.25,0,0,0-3.553-20.125c-7.93-16.132-6.111-17.3-6.358-33.314a5.922,5.922,0,0,0-5.922-5.922c-3.272,0-8.851,2.651-8.851,5.922v59.548a13.131,13.131,0,0,1-.281,2.694v8.525c0,7.183-5.184,10.511-12.368,10.511H156.352c4.98,6.926,14.061,14.867,21.969,18.151l.148.061a19.315,19.315,0,0,1,10.3,10.4,71.508,71.508,0,0,0,40.718-16.11l-4.414-16.215a20.7,20.7,0,0,1-.656-7.119Zm0,0" transform="translate(-111.744 -82.352)"/><path class="e" d="M54.3,108.837l-1.8-1.671a6.892,6.892,0,1,0-9.369,10.111L54.3,127.63Zm0,0" transform="translate(-26.501 -74.416)"/><path class="f" d="M100.109,191.977v80.164c0,2.8,1.68,5.07,3.753,5.07h50.649c2.072,0,3.753-2.27,3.753-5.07V191.977Zm0,0" transform="translate(-70.687 -157.807)"/><path class="e" d="M68.2,194.151a6.041,6.041,0,0,1-8.535.325L49.552,185.1a6.04,6.04,0,1,1,8.21-8.861l10.116,9.374a6.041,6.041,0,0,1,.325,8.535Zm0,0" transform="translate(-33.292 -123.421)"/><path class="g" d="M85.326,201.341l-4.812-4.458a7.09,7.09,0,0,1-8.209,8.861l4.811,4.458a6.04,6.04,0,1,0,8.21-8.861Zm0,0" transform="translate(-50.74 -139.147)"/><path class="e" d="M68.2,250.326a6.04,6.04,0,0,1-8.535.325l-10.116-9.374a6.039,6.039,0,1,1,8.21-8.859l10.116,9.374a6.039,6.039,0,0,1,.325,8.534Zm0,0" transform="translate(-33.292 -163.124)"/><path class="e" d="M68.2,306.5a6.04,6.04,0,0,1-8.535.325l-10.116-9.374a6.04,6.04,0,1,1,8.21-8.861l10.116,9.374A6.041,6.041,0,0,1,68.2,306.5Zm0,0" transform="translate(-33.292 -202.823)"/><path class="g" d="M255.18,392.745a20.836,20.836,0,0,1-.636-3.511,48.2,48.2,0,0,1-53.329,21.6,45.953,45.953,0,0,0,7.21,3.778l.148.062c4.757,2.009,10.172,8.243,12.085,12.84,15.406-1.021,27.7-9.338,38.936-18.555Zm0,0" transform="translate(-141.847 -275.091)"/><path class="g" d="M85.326,257.517l-4.812-4.458a7.09,7.09,0,0,1-8.209,8.861l4.811,4.457a6.039,6.039,0,1,0,8.21-8.859Zm0,0" transform="translate(-50.74 -178.849)"/><path class="g" d="M85.326,313.689l-4.812-4.458a7.09,7.09,0,0,1-8.209,8.861l4.811,4.458a6.04,6.04,0,0,0,8.21-8.861Zm0,0" transform="translate(-50.74 -218.549)"/><path class="h" d="M639.022,2732.895h36.961" transform="translate(-600.336 -2680.782)"/><path class="h" d="M639.022,2732.895h36.961" transform="translate(-600.336 -2666.252)"/><rect class="i" width="15" height="8" rx="1" transform="translate(38.565 75.07)"/><g transform="translate(38.565 16.07)"><path class="d" d="M-35.72.92C-34.3.92-32.991.136-32.991-1.2A2.048,2.048,0,0,0-34.8-3.269l-1.053-.256c-.43-.105-.831-.347-.831-.784a.921.921,0,0,1,1.023-.859.969.969,0,0,1,1.038.859h1.394a2.205,2.205,0,0,0-2.462-2.11,2.238,2.238,0,0,0-2.462,2.064c0,1.04.593,1.718,1.884,2.064l.934.226c.519.121.89.362.89.829,0,.527-.489.9-1.29.9A1.137,1.137,0,0,1-37.01-1.37h-1.35A2.471,2.471,0,0,0-35.72.92Zm7.935-7.188h-1.483V-8.9h-1.453v2.637h-1.246v1.236h1.246v5.8h1.453v-5.8h1.483Zm6.318,0V-2.5a1.872,1.872,0,0,1-2,1.959A1.6,1.6,0,0,1-25.042-2.35V-6.268h-1.453v4.023C-26.51-.24-25.457.92-23.707.92A2.55,2.55,0,0,0-21.467-.3V.769h1.453V-6.268Zm9.017-3.812v4.852a2.709,2.709,0,0,0-2.4-1.19,3.429,3.429,0,0,0-3.426,3.662A3.454,3.454,0,0,0-14.838.92,2.746,2.746,0,0,0-12.45-.285V.769H-11V-10.08Zm-2.225,9.6a2.2,2.2,0,0,1-2.151-2.29,2.147,2.147,0,0,1,2.151-2.245,2.209,2.209,0,0,1,2.21,2.245A2.188,2.188,0,0,1-14.674-.481Zm6.57-7.4a.961.961,0,0,0,.994-.949A.961.961,0,0,0-8.1-9.779a.97.97,0,0,0-.994.949A.97.97,0,0,0-8.1-7.88ZM-8.831.769h1.453V-6.268H-8.831ZM-2.008.92A3.578,3.578,0,0,0,1.64-2.772,3.54,3.54,0,0,0-2.008-6.418,3.529,3.529,0,0,0-5.642-2.772,3.566,3.566,0,0,0-2.008.92Zm0-1.4a2.183,2.183,0,0,1-2.18-2.29,2.166,2.166,0,0,1,2.18-2.26,2.178,2.178,0,0,1,2.2,2.26A2.195,2.195,0,0,1-2.008-.481Z" transform="translate(38.36 10.08)"/></g></g></g></g></svg>