<svg xmlns="http://www.w3.org/2000/svg" width="40" height="40" viewBox="0 0 40 40"><defs><style>.a{fill:#fbb733;stroke:#fbb733;}.b{fill:none;}</style></defs><g transform="translate(-798 -1438)"><g transform="translate(767 1446)"><path class="a" d="M59.672,3.886,50.484.072a.937.937,0,0,0-.719,0L40.578,3.886A.938.938,0,0,0,40,4.752V9.389a15.7,15.7,0,0,0,9.771,14.541.938.938,0,0,0,.709,0A15.7,15.7,0,0,0,60.25,9.389V4.752A.937.937,0,0,0,59.672,3.886Zm-1.3,5.5a13.828,13.828,0,0,1-8.25,12.655,13.829,13.829,0,0,1-8.25-12.655V5.378l8.25-3.425,8.25,3.425Z" transform="translate(0 0)"/></g><rect class="b" width="40" height="40" transform="translate(798 1438)"/></g></svg>