<svg xmlns="http://www.w3.org/2000/svg" xmlns:xlink="http://www.w3.org/1999/xlink" width="1920" height="723.005" viewBox="0 0 1920 723.005"><defs><style>.a{fill:#fff9eb;}.b{clip-path:url(#a);}.c{fill:url(#b);}</style><clipPath id="a"><path class="a" d="M0,0H1920V723.005H0Z" transform="translate(0 210.629)"/></clipPath><linearGradient id="b" x1="-0.275" y1="0.808" x2="0.549" y2="0.248" gradientUnits="objectBoundingBox"><stop offset="0" stop-color="#ffcb66"/><stop offset="1" stop-color="#ffe8a9" stop-opacity="0"/></linearGradient></defs><g class="b" transform="translate(0 -210.629)"><g transform="matrix(0.809, 0.588, -0.588, 0.809, 709.307, -194.652)"><g transform="translate(-9.829 17.782)"><path class="c" d="M-15.465,1262.291c-23.223-70.353,28.99-191.881,107.434-250.071,5.382-3.99,10.907-7.708,16.427-11.04,65.73-39.762,130.545-38.871,193.229-38.011,10.381.143,21.114.291,31.63.243,57.284-.253,161.4-13.105,215.152-96.339,46.957-72.723,26.739-151.356.768-218.686C513.928,556.92,480.051,476.209,445.61,401.653c-12.988-28-32.621-70.328-11.491-115.512,13.483-28.847,51.578-66.845,114.55-79,26.494-5.106,53.5-5.747,82.578-1.948,45.412,5.813,85.777,21.165,124.813,36.012l7.539,2.862c44.1,16.718,89.609,32.228,135.263,46.1,97.771,29.544,182.5,46.114,266.656,52.147,69.6,5.014,142.093,2.9,215.469-6.281,79.315-9.98,161.611-28.985,244.6-56.487,175.007-57.915,338.355-148.435,472.38-261.772l3.23,4.562C1966.372,136.361,1802.105,227.4,1626.161,285.625c-83.412,27.642-166.135,46.747-245.876,56.778-73.767,9.229-146.642,11.356-216.613,6.316-84.548-6.061-169.636-22.7-267.777-52.354-45.759-13.907-91.37-29.455-135.572-46.206l-7.544-2.867c-38.769-14.744-78.855-29.989-123.685-35.728-28.467-3.72-54.866-3.1-80.709,1.879C488.331,225.03,452.268,260.7,439.63,287.732c-18.247,39.027-4.864,74.372,11.731,110.151,34.49,74.655,68.405,155.458,103.689,247.028,11.1,28.763,24.2,66.978,27.042,107.506,3.1,44.161-6.3,82.514-28.735,117.259-55.877,86.535-162.775,99.89-221.525,100.15-10.565.043-21.326-.1-31.732-.248-61.767-.848-125.638-1.723-189.563,36.946-5.3,3.2-10.6,6.768-15.768,10.6C18.736,1073.52-31.94,1191.09-9.509,1259.041Z" transform="translate(21.021 -17.782)"/></g><g transform="translate(-18.68 69.214)"><path class="c" d="M-15.248,1228.111c-30.913-73.141,18.885-196.328,102.471-253.48a199.22,199.22,0,0,1,17.244-10.567c67.782-36.9,135.2-31.186,200.4-25.664,12.12,1.024,24.653,2.086,36.885,2.839,148.131,9.084,209.341-67.277,224.578-90.9,48.769-75.638,21.311-159.4-8.057-223.925-40.8-89.67-83.206-175.51-126.054-255.139C412.2,334.135,394.231,294.123,413.1,249.316c19.485-46.275,72.385-75.4,116.166-83.737,27.385-5.213,54.973-5.336,84.349-.386,46.224,7.736,87.908,26.657,128.224,44.958l7.892,3.579C796.618,235.1,844.785,254.8,892.906,272.3c101.4,36.783,195.8,60.371,288.608,72.115a1156.075,1156.075,0,0,0,229.506,5.885c83.9-6.2,169.9-22.248,255.6-47.695,180.364-53.516,347.492-145.037,483.31-264.675l3.572,4.721c-136.772,120.476-305,212.62-486.5,266.472-86.18,25.59-172.669,41.728-257.056,47.965a1161.85,1161.85,0,0,1-230.7-5.918c-93.206-11.79-187.98-35.468-289.746-72.388-48.246-17.537-96.535-37.288-143.525-58.706l-7.894-3.579c-40.017-18.168-81.4-36.951-126.95-44.572-28.674-4.836-55.553-4.721-82.177.347-41.577,7.915-91.669,35.235-109.855,78.424-17.647,41.9-.245,80.43,19.092,116.309,42.9,79.728,85.36,165.671,126.2,255.443,30.04,66,58.009,151.856,7.195,230.657-23.826,36.948-59.707,63.764-106.64,79.7-47.222,16.031-94.087,17.129-125.089,15.229-12.3-.756-24.87-1.82-37.02-2.849-64.228-5.443-130.642-11.068-196.438,24.747a191.364,191.364,0,0,0-16.488,10.108c-80.637,55.134-128.74,173.823-98.979,244.225Z" transform="translate(24.488 -37.927)"/></g><g transform="translate(-28.228 120.652)"><path class="c" d="M-14.6,1193.913c-19.886-39.182-17.933-92.512,5.359-146.313s63.46-97.779,110.21-120.649c70.026-34.265,140.2-23.808,208.057-13.695,13.7,2.042,27.862,4.154,41.646,5.821,122.411,14.8,201.138-34.444,233.994-85.465C635.5,754.688,599.385,665.023,567.8,604.44c-46.62-89.415-96.6-178.089-148.542-263.552-10.378-17.08-21.995-37.14-28.452-59.132-7.22-24.579-6.656-47.237,1.718-69.271C411.265,163.147,465.179,132.5,510.3,124.01c83.011-15.617,152.152,20.652,219.015,55.727L736.3,183.4c244.774,128.117,475.436,187.375,705.172,181.16,278.959-7.55,556.275-119.258,760.834-306.482l3.919,4.866c-206.122,188.654-485.393,301.212-766.2,308.81C1209.252,378,977.676,318.536,732.06,189.977l-6.988-3.661c-66.016-34.63-134.278-70.437-215.129-55.229-42.673,8.03-93.533,36.67-110.965,82.555-17.034,44.832,3.73,85.092,26.46,122.488,52,85.56,102.032,174.331,148.708,263.85,67.54,129.544,41.529,197.043,16.087,236.545-52.4,81.372-159.329,99.694-241.927,89.7-13.868-1.675-28.071-3.791-41.8-5.841-66.845-9.957-135.963-20.259-203.837,12.949-44.728,21.885-83.218,64.091-105.6,115.8S-27.253,1152.011-8.225,1189.5Z" transform="translate(28.228 -58.074)"/></g></g></g></svg>