<svg xmlns="http://www.w3.org/2000/svg" xmlns:xlink="http://www.w3.org/1999/xlink" width="1600" height="400" viewBox="0 0 1600 400"><defs><style>.a{fill:#fff9eb;}.b{clip-path:url(#a);}.c{opacity:0.34;}.c,.d{fill:url(#b);}.d{opacity:0.4;}</style><clipPath id="a"><rect class="a" width="1600" height="400" rx="20" transform="translate(2154 9551)"/></clipPath><linearGradient id="b" x1="0.5" x2="0.5" y2="1" gradientUnits="objectBoundingBox"><stop offset="0" stop-color="#fbb733"/><stop offset="1" stop-color="#f19c0c"/></linearGradient></defs><g class="b" transform="translate(-2154 -9551)"><path class="c" d="M0,277.8l79.131-28.091c79.131-28.619,237.392-84.01,395.653-84.406,158.261.4,316.523,55.787,474.784,35.081,158.261-21.5,316.523-119.092,474.784-140.589C1582.613,39.089,1740.874,94.48,1820,123.1l79.13,28.091V404.409H0Z" transform="matrix(1, 0.017, -0.017, 1, 2065.904, 9674.118)"/><path class="d" d="M0,304.051l65.816-36.61c65.816-36.062,197.448-110.1,329.081-102.289,131.632,7.267,263.264,95.022,394.9,87.755,131.632-7.816,263.264-109.282,394.9-124.365s263.265,58.96,394.9,95.022c131.632,36.61,263.265,36.61,329.081,36.61h65.816V391.806H0Z" transform="translate(1967.234 9660.922)"/></g></svg>